<?xml version="1.0" encoding="utf-8"?>
<!-- Generator: Adobe Illustrator 28.0.0, SVG Export Plug-In . SVG Version: 6.00 Build 0)  -->
<svg version="1.1" id="Capa_2" xmlns="http://www.w3.org/2000/svg" xmlns:xlink="http://www.w3.org/1999/xlink" x="0px"
     y="0px"
     viewBox="0 0 1697.6 1697.1" style="enable-background:new 0 0 1697.6 1697.1;" xml:space="preserve">
<style type="text/css">
	.st0{fill:#764494;}
	.st1{fill:#964895;}
	.st2{fill:#9E5BA1;}
	.st3{fill:#FFFFFF;}
	.st4{fill:#F7A531;}
	.st5{fill:#E86810;}
	.st6{fill:#FFD95A;}
	.st7{fill:#4B2770;}
</style>
    <path class="st0" d="M316.5,1697.1l532-314.6l532,314.6V278.2H316.5V1697.1z"/>
    <path class="st1" d="M452.7,1123.6c0.8-18.2,3.2-36.4,7.8-54c6.1-23.3,17.9-62.4,49.3-57.4c13.1,2.1,24.2,11.5,31,22.9
	c6.9,11.4,10.1,24.5,12.5,37.5c2.8,14.9,4.5,30.1,5.4,45.3c63.6-9.2,125.1-28.5,184.5-56.9c215.8-103.5,360.3-295.3,467.6-503.2
	c36.6-71,68.7-144.8,93.4-220.9v-11.3H392.8v793c19.8,2.8,39.6,4.4,58.9,5.1L452.7,1123.6z"/>
    <path class="st2" d="M1304.3,1540.9V336.8c-24.7,76.1-56.8,150-93.4,220.9c-107.2,207.9-251.8,399.7-467.6,503.2
	c-59.4,28.5-120.9,47.8-184.5,56.9c1.9,33-0.7,66.2-9.1,98.2c-2.9,11-6.5,22-13.3,31.1c-6.8,9.1-17.3,16-28.7,16
	c-14.4,0-26.7-10.8-34.5-22.9c-0.3-0.5-0.7-1.1-1-1.6c-12.5-20.3-16.6-44.6-18.5-68.4c-1.3-15.5-1.7-31.1-1.1-46.7l-1,0
	c-19.3-0.7-39.1-2.3-58.9-5.1v422.4l455.7-269.5L1304.3,1540.9z"/>
    <path class="st3" d="M471.7,920.7c6.4,17.4,18.6,36.3,37.1,36.9c13.6,0.4,25.4-9.5,33.4-20.4c2.2-3,4.2-6.1,6-9.3
	c10.3-17.9,15.7-38.5,19.8-58.9c12-59.6,14.9-120.6,15.8-181.4c1.1-76.4-1.2-154.3-26.5-226.4c-3.9-11.2-8.6-22.5-16.7-31.1
	c-8.1-8.6-20.5-14.2-32-11.3c-33.5,8.4-42.1,62.5-47.9,90.1c-7.5,36.4-10.2,73.6-11.6,110.7c-2.6,68.7-1,137.5,4.9,206
	C456.8,857.8,460.5,890.4,471.7,920.7z"/>
    <path class="st3" d="M540.9,1035c-6.9-11.4-17.9-20.8-31-22.9c-31.4-5-43.2,34.1-49.3,57.4c-4.6,17.7-7,35.8-7.8,54
	c-0.7,15.6-0.2,31.2,1.1,46.7c2,23.8,6.1,48.1,18.5,68.4c0.3,0.5,0.7,1.1,1,1.6c7.8,12.1,20.1,22.9,34.5,22.9c11.3,0,21.9-7,28.7-16
	s10.4-20.1,13.3-31.1c8.3-32,11-65.2,9.1-98.2c-0.9-15.2-2.6-30.3-5.4-45.3C550.9,1059.5,547.7,1046.4,540.9,1035z"/>
    <path class="st4" d="M196.3,68.6C177.8,37.8,144.2,17,105.6,17c-23.6,0-45.4,7.9-63,21C25.5,56.8,15,81.8,15,109.2
	c0,58.3,47.3,105.6,105.6,105.6c23.3,0,44.8-7.5,62.2-20.3c5.1-5.4,9.5-11.4,13.4-17.8h99.8V68.6H196.3z"/>
    <rect x="1380.6" y="68.6" class="st5" width="19.5" height="108.1"/>
    <rect x="296.1" y="68.6" class="st5" width="20.4" height="108.1"/>
    <path class="st5" d="M15,109.2C15,81.8,25.5,56.8,42.6,38l0.3-0.4c-1.4,1-2.8,2.1-4.1,3.2l-0.5,0.4c-2.3,1.9-4.5,3.9-6.6,6l-1.3,1.3
	c-2,2.1-4,4.2-5.9,6.4l-1.1,1.3c-1.8,2.3-3.6,4.6-5.2,7L18,63.7c-1.7,2.5-3.2,5.1-4.7,7.7c-0.3,0.5-0.6,1-0.9,1.6
	c-1.4,2.6-2.7,5.2-3.8,8c-0.2,0.5-0.4,1.1-0.6,1.6c-1.2,2.8-2.2,5.6-3.1,8.6l-0.1,0.2c-0.9,3-1.7,6-2.3,9c-0.1,0.6-0.3,1.2-0.4,1.8
	c-0.6,3-1.1,6-1.4,9.1c-0.1,0.6-0.1,1.2-0.2,1.8c-0.3,3.2-0.5,6.4-0.5,9.7l0,0c0,25.5,9.1,48.9,24.1,67.2c2.2,2.6,4.4,5.1,6.8,7.5
	c19.1,19.1,45.5,30.9,74.7,30.9c3.5,0,6.9-0.2,10.3-0.5l0.6-0.1c3.3-0.3,6.5-0.8,9.6-1.5l1-0.2c3.1-0.6,6.1-1.4,9-2.3l1.2-0.4
	c2.9-0.9,5.7-2,8.5-3.1l1.3-0.5c2.7-1.2,5.4-2.5,8-3.9l1.3-0.7c2.6-1.4,5.1-3,7.6-4.6l1.2-0.8c2.4-1.7,4.8-3.4,7.1-5.3l1-0.8
	c2.3-1.9,4.5-3.9,6.7-6.1l0.7-0.8c0.8-0.9,1.7-1.7,2.5-2.6l-0.4,0.3c-17.5,12.8-39,20.3-62.2,20.3C62.3,214.8,15,167.5,15,109.2z"/>
    <path class="st6" d="M101.3,29.8c-39.5,0-71.5,32-71.5,71.5c0,39.5,32,71.5,71.5,71.5c39.5,0,71.5-32,71.5-71.5
	C172.8,61.8,140.8,29.8,101.3,29.8z"/>
    <path class="st3" d="M75.5,64.7c-7.8-4.9-20.8,1.8-29.1,14.9c-8.3,13.1-8.7,27.8-1,32.7s20.8-1.8,29.1-14.9
	C82.8,84.2,83.2,69.6,75.5,64.7z"/>
    <path class="st3" d="M88.6,41.6c-8.3,3.1-13.6,9.5-11.8,14.5c1.8,4.9,10,6.4,18.4,3.4c8.3-3.1,13.6-9.5,11.8-14.5
	C105.2,40,97,38.5,88.6,41.6z"/>
    <path class="st4" d="M1682.6,109.2c0-27.4-10.5-52.4-27.6-71.2c-17.6-13.1-39.3-21-63-21c-38.6,0-72.2,20.7-90.6,51.6h-101.3v108.1
	h101.3c3.8,6.4,8.3,12.4,13.4,17.8c17.5,12.8,39,20.3,62.2,20.3C1635.3,214.8,1682.6,167.5,1682.6,109.2z"/>
    <path class="st5" d="M1697.6,122.7L1697.6,122.7c0-3.3-0.2-6.5-0.5-9.7c-0.1-0.6-0.1-1.2-0.2-1.8c-0.3-3.1-0.8-6.1-1.4-9.1
	c-0.1-0.6-0.2-1.2-0.4-1.8c-0.7-3.1-1.4-6.1-2.3-9l-0.1-0.2c-0.9-2.9-2-5.8-3.1-8.6c-0.2-0.5-0.4-1.1-0.6-1.6
	c-1.2-2.7-2.5-5.4-3.8-8c-0.3-0.5-0.6-1-0.9-1.6c-1.5-2.6-3-5.2-4.7-7.7l-0.3-0.4c-1.6-2.4-3.4-4.7-5.2-7L1673,55
	c-1.9-2.2-3.8-4.4-5.9-6.4l-1.3-1.3c-2.1-2.1-4.3-4.1-6.6-6l-0.5-0.4c-1.4-1.1-2.7-2.2-4.1-3.2l0.3,0.4
	c17.1,18.8,27.6,43.8,27.6,71.2c0,58.3-47.3,105.6-105.6,105.6c-23.3,0-44.8-7.5-62.2-20.3l-0.4-0.3c0.8,0.9,1.7,1.7,2.5,2.6
	l0.7,0.8c2.1,2.1,4.4,4.1,6.7,6.1l1,0.8c2.3,1.9,4.7,3.6,7.1,5.3l1.2,0.8c2.4,1.6,5,3.2,7.5,4.6l1.3,0.7c2.6,1.4,5.3,2.7,8,3.9
	l1.3,0.5c2.8,1.2,5.6,2.2,8.5,3.1l1.2,0.4c3,0.9,6,1.7,9,2.3l1,0.2c3.2,0.6,6.4,1.1,9.6,1.5l0.6,0.1c3.4,0.3,6.9,0.5,10.3,0.5
	c18.2,0,35.4-4.6,50.3-12.7c2.1-1.1,4.1-2.3,6-3.5C1677.9,193.3,1697.6,160.3,1697.6,122.7z"/>
    <path class="st6" d="M1667.8,101.3c0-39.5-32-71.5-71.5-71.5s-71.5,32-71.5,71.5c0,39.5,32,71.5,71.5,71.5
	C1635.8,172.7,1667.8,140.7,1667.8,101.3z"/>
    <rect x="316.5" y="176.7" class="st7" width="1064.1" height="101.5"/>
    <path class="st0" d="M316.5,176.7h1064.1V0H316.5V176.7z"/>
    <rect x="392.8" y="45.8" class="st2" width="911.5" height="85"/>
    <path class="st3" d="M1622.1,95c8.3,13.1,21.3,19.8,29.1,14.9c7.8-4.9,7.3-19.5-1-32.7c-8.3-13.1-21.3-19.8-29.1-14.9
	C1613.4,67.2,1613.8,81.8,1622.1,95z"/>
    <path class="st3" d="M1619.8,53.7c1.8-4.9-3.5-11.4-11.8-14.5c-8.3-3.1-16.6-1.6-18.4,3.4c-1.8,4.9,3.5,11.4,11.8,14.5
	C1609.8,60.1,1618,58.6,1619.8,53.7z"/>
    <polygon class="st7" points="316.5,0 296.1,68.6 316.5,68.6 "/>
    <polygon class="st7" points="1400.1,68.6 1380.6,0 1380.6,68.6 "/>
</svg>
