<?xml version="1.0" encoding="UTF-8"?>
<svg id="_Слой_2" data-name="Слой 2" xmlns="http://www.w3.org/2000/svg" xmlns:xlink="http://www.w3.org/1999/xlink" viewBox="0 0 2095.3 1665.35">
  <defs>
    <style>
      .cls-1 {
        clip-path: url(#clippath-11);
      }

      .cls-2 {
        fill: #ffc7b3;
      }

      .cls-2, .cls-3, .cls-4, .cls-5, .cls-6, .cls-7, .cls-8, .cls-9, .cls-10, .cls-11, .cls-12, .cls-13, .cls-14, .cls-15, .cls-16, .cls-17, .cls-18, .cls-19, .cls-20, .cls-21 {
        stroke-width: 0px;
      }

      .cls-3 {
        fill: #965c48;
      }

      .cls-4 {
        fill: #ffc33e;
      }

      .cls-22 {
        clip-path: url(#clippath-2);
      }

      .cls-23 {
        clip-path: url(#clippath-6);
      }

      .cls-5 {
        fill: #ff9c7d;
      }

      .cls-6 {
        fill: #ea876c;
      }

      .cls-7 {
        fill: none;
      }

      .cls-24 {
        clip-path: url(#clippath-7);
      }

      .cls-8 {
        fill: #a06e52;
      }

      .cls-25 {
        clip-path: url(#clippath-1);
      }

      .cls-26 {
        clip-path: url(#clippath-4);
      }

      .cls-9 {
        fill: #ffa894;
      }

      .cls-10 {
        fill: #ff8d40;
      }

      .cls-11 {
        fill: #494949;
      }

      .cls-27 {
        clip-path: url(#clippath-12);
      }

      .cls-12 {
        fill: #fff;
      }

      .cls-13 {
        fill: #30663a;
      }

      .cls-28 {
        clip-path: url(#clippath-9);
      }

      .cls-29 {
        clip-path: url(#clippath);
      }

      .cls-14 {
        fill: #7f5044;
      }

      .cls-15 {
        fill: #8c583e;
      }

      .cls-30 {
        clip-path: url(#clippath-3);
      }

      .cls-16 {
        fill: #eaa183;
      }

      .cls-31 {
        clip-path: url(#clippath-8);
      }

      .cls-17 {
        fill: #bf8d71;
      }

      .cls-32 {
        clip-path: url(#clippath-5);
      }

      .cls-18 {
        fill: #aa4222;
      }

      .cls-19 {
        fill: #edc38c;
      }

      .cls-33 {
        clip-path: url(#clippath-10);
      }

      .cls-20 {
        fill: #ffba99;
      }

      .cls-21 {
        fill: #912e13;
      }
    </style>
    <clipPath id="clippath">
      <path class="cls-7" d="m1708.52,504.93V91.05c0-7.02,5.69-12.71,12.71-12.71h208.69c7.02,0,12.72,5.69,12.72,12.71v413.88c0,7.02-5.69,12.71-12.71,12.71h-208.69c-7.02,0-12.71-5.69-12.71-12.71Z"/>
    </clipPath>
    <clipPath id="clippath-1">
      <path class="cls-7" d="m1708.52,504.93V91.05c0-7.02,5.69-12.71,12.71-12.71h208.69c7.02,0,12.72,5.69,12.72,12.71v413.88c0,7.02-5.69,12.71-12.71,12.71h-208.69c-7.02,0-12.71-5.69-12.71-12.71Z"/>
    </clipPath>
    <clipPath id="clippath-2">
      <path class="cls-7" d="m1708.52,504.93V91.05c0-7.02,5.69-12.71,12.71-12.71h208.69c7.02,0,12.72,5.69,12.72,12.71v413.88c0,7.02-5.69,12.71-12.71,12.71h-208.69c-7.02,0-12.71-5.69-12.71-12.71Z"/>
    </clipPath>
    <clipPath id="clippath-3">
      <path class="cls-7" d="m1708.52,504.93V91.05c0-7.02,5.69-12.71,12.71-12.71h208.69c7.02,0,12.72,5.69,12.72,12.71v413.88c0,7.02-5.69,12.71-12.71,12.71h-208.69c-7.02,0-12.71-5.69-12.71-12.71Z"/>
    </clipPath>
    <clipPath id="clippath-4">
      <path class="cls-7" d="m209.72,443.66L278.29,35.5c1.16-6.93,7.72-11.6,14.65-10.43l205.81,34.57c6.92,1.16,11.6,7.72,10.43,14.65l-68.57,408.16c-1.16,6.92-7.72,11.59-14.64,10.43l-205.81-34.58c-6.92-1.16-11.6-7.72-10.43-14.65Z"/>
    </clipPath>
    <clipPath id="clippath-5">
      <path class="cls-7" d="m1253.63,412.8L1077.33,30.21c-2.99-6.49-10.68-9.33-17.17-6.34l-192.92,88.9c-6.49,2.99-9.33,10.68-6.34,17.17l176.3,382.59c2.99,6.49,10.68,9.33,17.17,6.34l192.92-88.9c6.49-2.99,9.33-10.68,6.34-17.17Z"/>
    </clipPath>
    <clipPath id="clippath-6">
      <path class="cls-7" d="m1253.63,412.8L1077.33,30.21c-2.99-6.49-10.68-9.33-17.17-6.34l-192.92,88.9c-6.49,2.99-9.33,10.68-6.34,17.17l176.3,382.59c2.99,6.49,10.68,9.33,17.17,6.34l192.92-88.9c6.49-2.99,9.33-10.68,6.34-17.17Z"/>
    </clipPath>
    <clipPath id="clippath-7">
      <path class="cls-7" d="m1253.63,412.8L1077.33,30.21c-2.99-6.49-10.68-9.33-17.17-6.34l-192.92,88.9c-6.49,2.99-9.33,10.68-6.34,17.17l176.3,382.59c2.99,6.49,10.68,9.33,17.17,6.34l192.92-88.9c6.49-2.99,9.33-10.68,6.34-17.17Z"/>
    </clipPath>
    <clipPath id="clippath-8">
      <path class="cls-7" d="m1253.63,412.8L1077.33,30.21c-2.99-6.49-10.68-9.33-17.17-6.34l-192.92,88.9c-6.49,2.99-9.33,10.68-6.34,17.17l176.3,382.59c2.99,6.49,10.68,9.33,17.17,6.34l192.92-88.9c6.49-2.99,9.33-10.68,6.34-17.17Z"/>
    </clipPath>
    <clipPath id="clippath-9">
      <path class="cls-7" d="m1253.63,412.8L1077.33,30.21c-2.99-6.49-10.68-9.33-17.17-6.34l-192.92,88.9c-6.49,2.99-9.33,10.68-6.34,17.17l176.3,382.59c2.99,6.49,10.68,9.33,17.17,6.34l192.92-88.9c6.49-2.99,9.33-10.68,6.34-17.17Z"/>
    </clipPath>
    <clipPath id="clippath-10">
      <path class="cls-7" d="m1253.63,412.8L1077.33,30.21c-2.99-6.49-10.68-9.33-17.17-6.34l-192.92,88.9c-6.49,2.99-9.33,10.68-6.34,17.17l176.3,382.59c2.99,6.49,10.68,9.33,17.17,6.34l192.92-88.9c6.49-2.99,9.33-10.68,6.34-17.17Z"/>
    </clipPath>
    <clipPath id="clippath-11">
      <path class="cls-7" d="m1253.63,412.8L1077.33,30.21c-2.99-6.49-10.68-9.33-17.17-6.34l-192.92,88.9c-6.49,2.99-9.33,10.68-6.34,17.17l176.3,382.59c2.99,6.49,10.68,9.33,17.17,6.34l192.92-88.9c6.49-2.99,9.33-10.68,6.34-17.17Z"/>
    </clipPath>
    <clipPath id="clippath-12">
      <path class="cls-7" d="m2009.52,1269.34l-254.53-364.06c-4.32-6.18-12.83-7.68-19-3.36l-183.57,128.34c-6.18,4.32-7.68,12.83-3.36,19.01l254.53,364.06c4.32,6.18,12.83,7.68,19,3.36l183.57-128.34c6.18-4.32,7.68-12.83,3.36-19.01Z"/>
    </clipPath>
  </defs>
  <g id="_Слой_1-2" data-name="Слой 1">
    <g>
      <path class="cls-13" d="m1988.24,368.69c.98,2.32,5.03,11.07,14.81,15.76,11.92,5.72,29.16,3.88,37.98-7.99,10.37-13.95,4.18-35.12-9.84-44.16-10.85-6.99-27.53-7.46-37.83,2.9-9.45,9.51-9.22,23.84-5.12,33.5Z"/>
      <path class="cls-13" d="m1715.1,355.09c-31.42-21.86-72.86-9.22-74.97-8.55-8.94,2.86-24.21,7.76-34.2,22.36-14.38,21.02-7.29,46.79-4.6,56.56,5.05,18.37,19.01,19.94,22.36,38.8,1.65,9.3.24,16.79-1.31,24.99-4.21,22.29-12.53,25.85-15.78,42.09-.67,3.33-5.29,28.46,10.52,48.01,16.98,20.98,44.84,19.9,48.01,19.73,28.48-1.56,46.28-23.82,54.58-34.2,23.73-29.67,25.72-63.08,26.96-90.1,1.94-42.2,4.35-94.7-31.57-119.69Z"/>
      <path class="cls-4" d="m1842.34,117.51c-.43,32.42,4.01,43.45,1.65,63.71-.78,6.75-2.52,10.95-47.99,66.2-26.92,32.7-35.84,42.81-43.72,62.36-5.96,14.79-10.85,26.9-9.23,42.73,3.4,33.29,33.21,60.12,62.89,68.68,12.39,3.57,26.06,4.33,51.3-.83,52.56-10.74,91.88-1.81,116.9-41.45,36.68-58.12,16.11-147.77,7.53-164.62-14.38-28.26-10.08-59.12,4.65-77.75,31.98-40.44,37.51-101.37,19.03-117.5-24.69-21.54-60.6-16.01-82.74-3.31-25.28,14.51-79.43,39.72-80.26,101.78Z"/>
      <path class="cls-21" d="m1874.12,179.96c-19.97-26.11-97.83-6.78-150.21,26.82-36.39,23.34-103.67,5.71-111.48,2.79-5.03-1.88-9.48,3.88-6.47,8.32,4.61,6.81,10.75,14.16,18.89,20.97,24.31,20.32,51.12,22.9,69.58,24.67,21.4,2.06,62.68,6.02,98.7-21.22,22.26-16.84,76.32-50.77,80.99-62.35Z"/>
      <path class="cls-21" d="m1645.69,263.94c-3.73-.1-5.53,4.49-2.84,7.07,22.54,21.58,59.48,14.81,87.46,10.78,11.67-1.68,25.37-9.79,40.86-6.54,8.95,1.88,47.44-.6,31.09-5.18-20.38-5.71-87.79-21.96-99.01-22.74-18.65-1.29-25.93,17.46-57.56,16.62Z"/>
      <path class="cls-16" d="m1661.28,254.87c-2.47,8.91,22.37,40.98,34.14,50.91,21.19,17.88,43.8,23.9,56.16,26.21,2.96-3.21,32.02-35.38,22.46-56.16-13.43-29.2-107.29-40.66-112.76-20.95Z"/>
      <path class="cls-16" d="m1732.38,199.26c-15.6,15.6-31.01,13.29-70.02-19.92-18.83-16.03-45.19-39.42-26.17-59.14,27.89-28.91,69.63,5.98,95.24,34.5,3.33,3.71,23.09,22.41.94,44.56Z"/>
      <path class="cls-16" d="m1765.63,383.48c-30.31,14.37-37.57,27.88-39.38,31.57-9.18,18.64,2.45,36.19,5.63,63.13,10.85,92.07,56.26,136.79,56.26,136.79,0,0,59.15,15.1,73.14,13.15,8.57-1.19,82.34-12.6,109.71-73.66,17.33-38.65,5.77-74.27,0-92.07-5.91-18.21-24-73.98-81.58-94.7-51.43-18.51-98.56,3.83-123.78,15.78Z"/>
      <path class="cls-16" d="m2026.82,396.63c-5.94,22.66.42,176.22-39.87,194.36-16.95,7.63-54.96,6.65-75.93-1.9-25.63-10.44-27.65-52.34-28.27-65.24-1.97-40.8,17.41-72.17,29.64-91.97,15.26-24.7,32.31-41.77,44.14-52.16-.3-29.78,73.3,5.43,70.29,16.9Z"/>
      <path class="cls-16" d="m1819.01,604.45c7.98,20.53,15.89,41.58,23.68,63.13,6.42,17.76,12.55,35.3,18.41,52.61,5.54,5.89,15.06,14.64,28.94,21.04,53.16,24.54,109.52-13.29,113.11-15.78,9.19-6.37,24.03-18.5,36.83-39.46-12.34-20.29-24.87-43.09-36.83-68.4-17.43-36.89-30.12-71.63-39.46-102.59-23.94,10.68-50.73,24.41-78.92,42.09-25.29,15.87-47.17,32.07-65.77,47.35Z"/>
      <path class="cls-16" d="m1661.28,323.74c-2.47,8.91,22.37,40.98,34.14,50.91,21.19,17.88,43.8,23.9,56.16,26.21,2.96-3.21,32.02-35.38,22.46-56.16-13.43-29.2-107.29-40.66-112.76-20.95Z"/>
      <path class="cls-11" d="m1922.04,543.95h-192.91c-17.19,0-31.13-13.94-31.13-31.13V83.16c0-17.19,13.94-31.13,31.13-31.13h192.91c17.19,0,31.13,13.94,31.13,31.13v429.66c0,17.19-13.94,31.13-31.13,31.13Z"/>
      <path class="cls-12" d="m1708.52,504.93V91.05c0-7.02,5.69-12.71,12.71-12.71h208.69c7.02,0,12.72,5.69,12.72,12.71v413.88c0,7.02-5.69,12.71-12.71,12.71h-208.69c-7.02,0-12.71-5.69-12.71-12.71Z"/>
      <path class="cls-16" d="m1658.42,368.9c14.21-14.21,28.24-12.1,63.78,18.15,17.15,14.6,41.16,35.91,23.83,53.87-25.4,26.33-63.42-5.45-86.75-31.43-3.03-3.38-21.03-20.42-.86-40.59Z"/>
      <path class="cls-16" d="m1676.93,348.78c-15.12-14.09-21.55-25.89-15.52-42.26,5.42-14.71,21.51-29.86,35.28-25.99,14.1,3.96,19.76,26.15,16.27,42.04-3.61,16.47-17.12,21.75-36.03,26.21Z"/>
      <path class="cls-16" d="m1972.91,396.65c-18.19-16.91-29.14-45.06-25.13-73.1,6.18-43.29,45.9-72.9,54.83-68.54,5.97,2.92,1.44,15.97,4.57,47.98,1.34,13.74,2.94,16.28,9.14,47.97,6.82,34.91,13.77,40.64,9.14,50.26-.93,1.92-4.41,8.49-11.42,11.42-16.52,6.89-37.57-12.69-41.12-15.99Z"/>
      <g>
        <g class="cls-29">
          <path class="cls-4" d="m1842.34,117.51c-.43,32.42,4.01,43.45,1.65,63.71-.78,6.75-2.52,10.95-47.99,66.2-26.92,32.7-35.84,42.81-43.72,62.36-5.96,14.79-10.85,26.9-9.23,42.73,3.4,33.29,33.21,60.12,62.89,68.68,12.39,3.57,26.06,4.33,51.3-.83,52.56-10.74,101.58-20.77,126.6-60.4,36.68-58.12,3.59-151.11-4.96-167.97-.93-1.82-4.01-7.58-4.97-15.72-1.78-15.21,5.12-28.05,12.41-39.72,23.11-36.96,33.64-35.67,38.89-52.96,6.38-20.98-1.38-48.41-19.86-64.54-24.69-21.54-60.6-16.01-82.74-3.31-25.28,14.51-79.43,39.72-80.26,101.78Z"/>
        </g>
        <g class="cls-25">
          <g>
            <path class="cls-13" d="m1857.15,337.01c-2.72,3.41-6.57,8.73-10.08,15.78-8.87,17.82-7.95,31.41-9.65,48.23-1.21,12-5.41,42.26-21.48,71.9-8.31,15.31-18.87,28.79-22.8,33.76-7.6,9.62-14.69,17.26-20.17,22.8,13.14,1.92,31.3,4.2,53.05,5.7,25.46,1.76,46.55,3.22,73.66.44,13.62-1.4,32.35-4.23,54.36-10.52,6.4-37.65,7.19-68.95,6.58-91.19-.72-26.01-3.52-45.36-12.28-65.33-9.19-20.96-19.11-29.26-24.11-32.88-11.49-8.31-17.54-11.62-34.87-16.4,1.77,8.4-19.94,13.33-32.21,17.72Z"/>
            <path class="cls-13" d="m1851.46,338.1c-3.18,2.01-7.83,5.23-12.82,9.87-17.8,16.54-19.49,33.77-28.84,52.17-1.56,3.08-14.91,28.86-34.64,43.84-8.3,6.3-34.1,23.13-84.18,14.47-.15,4.69-.17,9.67,0,14.91.21,6.4.68,12.4,1.31,17.98,11.42.92,28.18,1.09,47.79-3.07,10.67-2.27,32.37-5.44,53.05-21.48,31.51-24.44,64.23-69.25,67.08-79.79,5.53-20.45-3.91-39.34-8.76-48.89Z"/>
            <path class="cls-12" d="m1907.02,325.28c-1.75-.78-3.59-1.52-5.63-2.25-.02,0-.04-.02-.06-.02-2.92,1.39-6.26,2.94-9.98,4.58-11.53,5.1-17.45,7.68-24.99,9.21-3.73.75-9,1.51-15.53,1.43-.16.2-.32.43-.48.62-.64.41-1.34.89-2.05,1.39.95,1.81,2.29,3.85,4.25,5.77,9.88,9.73,25.11,6.71,27.29,6.25,14.85-3.18,22-15.45,23.35-17.76,1.91-3.27,3.08-6.44,3.83-9.21Z"/>
            <path class="cls-10" d="m1860.37,320.77c-1.15,3.41-2.88,7.52-5.55,11.84-1.59,2.58-3.24,4.79-4.81,6.66,2.18,2.23,6.6,6.13,13.32,8.14,12.16,3.63,22.41-1.75,25.17-3.33,11.4-6.56,14.86-17.6,15.54-19.99-3.89-1.61-7.84-3.22-11.84-4.81-4.49-1.79-8.93-3.51-13.32-5.18-.35.6-4.9,8.1-12.58,8.14-2.49.01-4.54-.76-5.92-1.48Z"/>
            <path class="cls-20" d="m1854.32,291.16c-.29,5.35-.27,11.69.49,18.75.75,6.99,2.05,13.13,3.45,18.26,2.69.79,11.05,2.86,20.23-.99,5.45-2.29,8.98-5.74,10.86-7.9-2.05-3.62-4.45-8.78-5.92-15.3-2.11-9.36-1.36-17.32-.49-22.21-9.54,3.13-19.08,6.25-28.62,9.38Z"/>
            <path class="cls-5" d="m1882.16,288.65c.14-2.67.46-5,.79-6.87-9.54,3.12-19.08,6.25-28.62,9.38-.22,4.11-.25,8.82.09,13.97,2.96-.2,6.37-.75,10.03-2.13,8.67-3.26,14.3-9.33,17.72-14.35Z"/>
            <path class="cls-21" d="m1874.12,179.96c-19.97-26.11-97.83-6.78-150.21,26.82-36.39,23.34-103.67,5.71-111.48,2.79-5.03-1.88-9.48,3.88-6.47,8.32,4.61,6.81,10.75,14.16,18.89,20.97,24.31,20.32,51.12,22.9,69.58,24.67,21.4,2.06,62.68,6.02,98.7-21.22,22.26-16.84,76.32-50.77,80.99-62.35Z"/>
            <path class="cls-21" d="m1645.69,263.94c-3.73-.1-5.53,4.49-2.84,7.07,22.54,21.58,59.48,14.81,87.46,10.78,11.67-1.68,25.37-9.79,40.86-6.54,8.95,1.88,47.44-.6,31.09-5.18-20.38-5.71-87.79-21.96-99.01-22.74-18.65-1.29-25.93,17.46-57.56,16.62Z"/>
            <path class="cls-21" d="m1760.56,288.51c-6.82,3.48-22.33,9.45-35.52,10.94-2.38.27-3.36,3.18-1.7,4.89,2.7,2.78,6.19,5.8,10.56,8.53,14.82,9.26,29.8,8.92,37.75,8.64,14.56-.52,26.01-5.06,33.06-8.64-1.44,2.82-3.7,6.55-7.16,10.36-.94,1.03-3.8,4.11-8.14,7.15-3.93,2.76-7.93,4.7-11.62,6.07-2.83,1.05-2.61,5.04.32,5.78,2.31.58,4.85,1.1,7.6,1.47,7.93,1.07,16.31,2.21,25.17-1.73,10.15-4.51,15.42-13.23,18.01-17.52,5.6-9.26,3.84-12.96,8.64-19.25,3.6-4.72,10-9.71,22.21-12.09-5.64-5.93-14.81-14.39-27.88-21.71-15.78-8.85-29.11-16.32-43.43-13.08-16.9,3.82-8.59,20.31-27.88,30.17Z"/>
            <path class="cls-18" d="m1869.21,217.85c-13.41-12.26-39.22-13.19-56.22-12.92-17.2.27-25.8,9.46-38.79,15.97-21.85,10.94-24.9,14.38-40.1,18.42-7.15,1.9-27.2,5.78-45.15-5.93-2.56-1.67-4.8-3.47-6.77-5.32-4.41-4.14-11.56-.25-10.52,5.7.85,4.88,2.42,10.11,5.13,15.36,13.45,26.08,45.34,49.81,92.78,40.55,8.35-1.63,16.79-3.65,29.78-10.51,12.17-6.43,22.65-10.31,29.35-12.52,1.91-1.96,6.85-7.52,9.07-15.82,11.89-.21,22.47,3.23,30.15,6.59,1.76-1.76,8.83-9.22,8.9-20.5.02-3.12-.76-12.78-7.63-19.06Z"/>
            <path class="cls-21" d="m1878.88,188.29c-2.04-15.75-26.84-30.19-59.1-31.61-19.7-.87-29.49-1.93-36.52-9.62-.97-1.06-1.77-2.15-2.43-3.2-.99-1.58-3.37-1.02-3.63.82-.44,3.14-.39,6.94,1.12,10.77.96,2.43,4.04,8.79,17.52,14.31,18.9,7.75,28.72,1.77,49.35,6.17,6.72,1.43,22.48,5.62,33.69,12.36Z"/>
            <path class="cls-18" d="m1828.61,233.28c-2.52,1.66-5.72,4.28-12.05,13.89-10.11,15.35-9.06,19.47-17.06,29.67-3.41,4.34-7.89,9.95-15.7,14.46-3.86,2.23-7.67,3.7-11.12,4.65-3.82,1.06-4.18,6.24-.59,7.92,1.31.61,2.72,1.2,4.22,1.72,16.79,5.85,31.71-.33,34.94-1.76,7.35-3.26,8.35-5.98,19.48-14.31,10.42-7.8,19.64-12.96,25.58-16.02,1.86-2.62,7.35-11.08,6.22-22.34-.17-1.64-2.1-18.57-14.04-22.52-8.54-2.82-16.96,2.71-19.88,4.63Z"/>
            <path class="cls-21" d="m1878.87,198.08c.04-1.96.14-6.97,3.33-10.64,5.53-6.37,16.47-4.26,18.14-3.94,17.9,3.44,30.64,24.96,34.42,42.97,2.93,13.95.27,24.77-.37,27.2-1.32,5.04-4.18,15.91-13.69,23.65-6.21,5.05-12.39,6.45-17.02,7.49-11.24,2.53-21.02.74-27.39-1.18,1.2-41.57,2.31-72.53,2.59-85.55Z"/>
            <path class="cls-21" d="m1861.73,198.08c-8.01-10.39-20.73-23.48-38.33-27.9-8.53-2.14-15.12-7.64-36.66-5.2-26.07,2.96-42.9,13.39-54.69,4.66-1.63-1.21-3.04-2.5-4.26-3.79-1.83-1.94-4.7-.38-4.39,2.33.54,4.62,1.95,10.03,5.25,15.02,2.1,3.17,8.33,11.25,27.66,14.83,27.13,5.02,37.67-6.67,65.83-6.97,9.17-.1,22.74.98,39.58,7.02Z"/>
            <path class="cls-20" d="m1825.7,281.29c5.24,19.27,37.41,19.24,55.27,7.9,13.23-8.4,17.31-18.01,19.74-40.47,3.88,3.7,16.24-3.37,15.79-13.82-.27-6.32-10.84-7.76-17.77-4.93-.44-6.47-2.5-24.23-14.8-31.58-18.89-11.29-82.91-7.9-58.23,82.91Z"/>
            <path class="cls-18" d="m1871.91,178.22c-10.3-6.43-27.37-3.9-38.51-1.66-11.27,2.27-18.85,7.99-26.59,13.84-13.03,9.84-11.57,13.83-21.07,18.33-4.47,2.12-17.17,7.1-30.39,1.59-1.88-.79-3.57-1.7-5.09-2.67-3.4-2.18-7.63,1.24-6.22,5.02,1.15,3.1,2.82,6.35,5.23,9.47,12,15.5,32.73,15.12,38.23,15.02,21.4-.39,37.77-13.28,41.7-16.38,8.62-6.79,10.61-11.48,19.27-15.03,10.18-4.18,20.37-3.02,27.39-1.37.94-1.37,4.68-7.13,3.36-14.55-.36-2.05-2.05-8.3-7.33-11.6Z"/>
            <path class="cls-18" d="m1875.3,197.15c-2.07,3.93-1.13,7.8.74,15.55,1.98,8.17,3.12,12.9,7.65,16.04.69.48,5.94,3.99,12.21,2.38,2.39-.61,4.13-1.76,5.18-2.59,2.01-1.03,4.73-2.84,6.29-5.95,3.99-7.92-2.71-17.75-5.92-22.45-3.71-5.43-6.54-9.58-11.84-10.36-5.67-.84-11.74,2.53-14.31,7.4Z"/>
            <path class="cls-11" d="m1839.53,266.01c-1.2,0-2.4-.06-3.6-.18-.72-.08-1.25-.72-1.17-1.45.07-.72.72-1.21,1.44-1.17,2.21.23,4.44.23,6.64,0,6.39-.66,12.64-3.29,18.07-7.61.57-.45,1.4-.36,1.85.21.45.57.36,1.4-.21,1.85-5.83,4.64-12.55,7.46-19.44,8.17-1.19.12-2.38.19-3.58.19Z"/>
            <path class="cls-11" d="m1861.69,232.16c-.22-1.95-1.18-4.97-2.75-5.11-1.42-.13-2.79,2.13-3.35,3.69-1.53,4.29.76,9.9,2.68,9.96,1.77.05,3.85-4.56,3.41-8.53Z"/>
            <path class="cls-5" d="m1872.58,236.88c-2.83-.82-6.37-.15-8.64,2.47-2,2.32-2.44,5.53-1.48,8.14,1.52,4.13,6.43,6.46,10.61,5.18,2.69-.82,5.09-3.14,5.68-6.17.81-4.21-2.16-8.46-6.17-9.62Z"/>
            <path class="cls-11" d="m1848.9,220.86c-.37,0-.74-.16-1-.46-.47-.55-.41-1.39.15-1.86,1.7-1.44,3.61-2.47,5.68-3.04,5.75-1.59,10.67.87,12.51,2,.62.38.81,1.19.44,1.81-.38.62-1.19.81-1.81.43-1.55-.95-5.68-3.03-10.44-1.7-1.7.47-3.28,1.31-4.68,2.51-.25.21-.55.31-.85.31Z"/>
            <path class="cls-11" d="m1834.03,238.99c-.21-1.95-1.18-4.97-2.75-5.11-1.42-.13-2.79,2.13-3.35,3.69-1.53,4.29.76,9.9,2.69,9.96,1.77.05,3.85-4.56,3.41-8.53Z"/>
            <path class="cls-11" d="m1821.12,230.75c-.19,0-.39-.04-.58-.13-.65-.32-.92-1.11-.6-1.76.92-1.88,2.18-3.41,3.72-4.58,4.31-3.23,9.24-2.3,11.16-1.74.7.2,1.1.93.9,1.63-.2.7-.94,1.11-1.63.9-1.54-.44-5.5-1.2-8.86,1.32-1.21.91-2.2,2.13-2.94,3.63-.23.47-.7.73-1.18.73Z"/>
            <path class="cls-5" d="m1826.39,248.6c-2.29-.73-5.16-.14-6.99,2.22-1.62,2.09-1.97,4.98-1.2,7.34,1.23,3.72,5.21,5.82,8.59,4.67,2.18-.74,4.13-2.83,4.6-5.56.65-3.79-1.75-7.62-5-8.67Z"/>
            <path class="cls-6" d="m1844.28,255.1c-2.17,0-4.21-.77-5.69-2.24-1.69-1.68-2.12-3.77-2.23-4.88-.06-.66.37-1.27,1.02-1.41,2.59-.58,4.61-2.73,5.04-5.34.42-2.59-.75-5.17-2.98-6.58-.61-.39-.8-1.2-.41-1.81.39-.62,1.2-.8,1.81-.41,3.12,1.97,4.76,5.59,4.18,9.22-.53,3.3-2.77,5.98-5.84,7.13.2.7.57,1.52,1.27,2.21,1.55,1.54,4.09,1.91,6.48.95.67-.28,1.44.05,1.71.73.27.67-.06,1.44-.73,1.71-1.2.49-2.43.72-3.63.72Z"/>
            <path class="cls-5" d="m1901.21,242.09c-.08-.36-.83-4.04,1.64-6.74,2.22-2.42,6.09-3.03,9.37-1.32.05,1.1-.06,2.72-.99,4.27-1.76,2.97-5.74,4.48-10.03,3.78Z"/>
            <path class="cls-12" d="m1871.29,406.5c-6.86-13.35-14.77-20.89-20.06-19.4-3.91,1.1-5.47,6.89-5.92,8.55-2.69,9.96,3.04,19.56,11.84,33.87,2.6,4.23,6.61,10.37,12.17,17.43,6.84-5.82,11.93-11.3,15.46-15.46,8.67-10.22,14.98-17.85,15.78-28.61.11-1.44.9-13.43-4.27-15.78-7.93-3.6-24.05,18.11-24.99,19.4Z"/>
          </g>
        </g>
        <g class="cls-22">
          <path class="cls-12" d="m1902.86,147.61c-3.47-4.62-10.78-5.43-15.78-2.3-3.47,2.17-6.16,6.43-5.59,10.85.87,6.73,9.08,11.99,15.78,9.54,6.9-2.52,9.89-12.34,5.59-18.09Z"/>
        </g>
        <g class="cls-30">
          <path class="cls-12" d="m1917.65,95.32c-1.51-.47-12.65-3.75-21.04,3.62-7.05,6.19-8.49,16.66-4.93,24.66,4.47,10.05,16.32,15.1,26.64,12.17,8.29-2.36,15.94-9.98,16.11-19.73.19-10.88-9.02-18.3-16.77-20.72Z"/>
        </g>
      </g>
      <path class="cls-16" d="m1676.93,279.91c-15.12-14.09-21.55-25.89-15.52-42.26,5.42-14.71,21.51-29.86,35.28-25.99,14.1,3.96,19.76,26.15,16.27,42.05-3.61,16.47-17.12,21.75-36.03,26.21Z"/>
      <path class="cls-11" d="m1689.77,345.8c-1.67,0-3.36-.14-5.05-.43-5.86-1.02-10.58-3.67-12.95-7.28-.4-.61-.23-1.42.38-1.82.61-.4,1.43-.23,1.82.38,1.98,3.01,6.06,5.24,11.21,6.14,6.29,1.09,12.67-.09,16.64-3.07.58-.43,1.41-.32,1.84.26.44.58.32,1.4-.26,1.85-3.44,2.59-8.39,3.99-13.63,3.99Z"/>
      <path class="cls-11" d="m1999.2,412.42c-.09,0-.18,0-.27-.03-7.19-1.5-21.05-6.11-33.17-20.16-10.72-12.43-16.34-26.23-17.98-32.42-.19-.7.23-1.42.94-1.61.7-.19,1.42.24,1.61.93,1.58,5.98,7.02,19.31,17.43,31.37,11.61,13.47,24.85,17.87,31.72,19.3.71.15,1.17.84,1.02,1.56-.13.62-.68,1.05-1.29,1.05Z"/>
      <path class="cls-11" d="m1971.58,413.73c-.31,0-.62-.1-.86-.32-4.39-3.84-8.03-8.39-10.81-13.52-3.71-6.84-4.38-15.79-3.42-21.21.12-.71.8-1.19,1.52-1.07.72.13,1.19.81,1.07,1.53-.88,4.99-.26,13.22,3.15,19.5,2.63,4.85,6.08,9.16,10.23,12.79.55.48.6,1.31.12,1.86-.26.3-.62.45-.99.45Z"/>
      <g>
        <path class="cls-16" d="m1927.21,553.24c-.11-6.58.6-17.47,5.89-29.44,8.69-19.68,24.14-29.55,30.07-32.93,2.2,5.28,4.55,13.45,3.09,22.93-2.76,18.02-18.11,33.21-39.05,39.44Z"/>
        <path class="cls-11" d="m1927.21,554.56c-.72,0-1.3-.57-1.31-1.29-.18-10.49,1.84-20.58,6-29.99,8.26-18.71,22.73-29.04,30.62-33.54.63-.36,1.43-.14,1.79.49.36.63.14,1.44-.49,1.79-7.61,4.34-21.56,14.3-29.52,32.32-4,9.06-5.94,18.78-5.77,28.89.01.73-.57,1.33-1.29,1.34,0,0-.01,0-.02,0Z"/>
      </g>
      <path class="cls-11" d="m1862.63,625.69c-12.02,0-25.74-.46-36.17-1.32-.72-.06-1.26-.7-1.2-1.42.06-.72.71-1.23,1.42-1.21,17.16,1.42,43.25,1.75,55.83.71.75-.02,1.36.48,1.42,1.21.06.72-.48,1.36-1.2,1.42-5.03.42-12.2.62-20.1.62Z"/>
      <path class="cls-11" d="m1949.22,607.52c-.56,0-1.09-.36-1.26-.93-.21-.69.18-1.43.87-1.64,7.84-2.39,15.6-5.32,23.08-8.71,7.42-3.36,14.68-7.23,21.6-11.52.62-.39,1.43-.19,1.81.43.38.62.19,1.43-.43,1.81-7.01,4.34-14.38,8.27-21.9,11.68-7.58,3.43-15.45,6.4-23.4,8.83-.13.04-.26.06-.38.06Z"/>
      <path class="cls-10" d="m2000.71,256.42c-7.25,6.23-14.51,18.08-16.04,34.44-.41,4.42.1,19.85,2.29,28.17,2.87.88,20.46-2.18,23.43-2.85-5.48-34.64,2.79-70.47-9.67-59.76Z"/>
      <path class="cls-10" d="m1700.51,420.86c.7-3.03,2.03-7.03,4.64-11.18,5.81-9.22,14.25-13.27,17.93-14.76,10.53,6.88,17.34,14.06,21.51,19.19,4.33,5.33,5.64,8.25,5.48,11.39-.33,6.67-7.14,11.88-11.81,13.71-10.66,4.17-25.88-3.13-37.75-18.35Z"/>
      <path class="cls-10" d="m1694.78,281.94c3.53,2.29.51,12.75-.78,17.22-3.16,10.92-8.66,19.11-13.3,24.65-3.26-.65-6.52-1.3-9.78-1.96-.73-3.04-1.77-9.12,0-16.43,1.68-6.94,5.07-11.7,7.04-14.09,7.1-7.13,13.89-11.29,16.82-9.39Z"/>
      <path class="cls-11" d="m1687.25,280.26s-.09,0-.14,0c-2.55-.27-4.97-1.02-7.18-2.23-4.77-2.6-7.22-6.66-8.26-8.84-.31-.66-.03-1.44.62-1.75.66-.31,1.44-.03,1.75.62.9,1.9,3.03,5.42,7.14,7.66,1.9,1.04,3.99,1.69,6.19,1.92.72.08,1.24.73,1.17,1.45-.07.68-.64,1.18-1.31,1.18Z"/>
      <path class="cls-10" d="m1694.78,213.33c3.53,2.29.51,12.75-.78,17.22-3.16,10.92-8.66,19.1-13.3,24.65-3.26-.65-6.52-1.3-9.78-1.96-.73-3.04-1.77-9.12,0-16.43,1.68-6.94,5.07-11.7,7.04-14.09,7.1-7.13,13.89-11.29,16.82-9.39Z"/>
      <path class="cls-11" d="m1862.08,638.51c-.09,0-.19,0-.28-.03-8.01-1.73-15.84-4.3-23.28-7.65-4.33-1.95-8.58-4.19-12.64-6.65-.62-.38-.82-1.19-.44-1.81.38-.62,1.19-.81,1.81-.44,3.97,2.41,8.12,4.6,12.35,6.5,7.27,3.27,14.92,5.79,22.75,7.48.71.15,1.16.85,1.01,1.56-.13.62-.68,1.04-1.29,1.04Z"/>
      <path class="cls-11" d="m1685.54,408.16c-.09,0-.19-.01-.29-.03-.71-.16-1.16-.86-1-1.57,1.22-5.43,4.18-13.22,11.38-19.49,2.88-2.5,6.16-4.51,9.76-5.97.68-.27,1.44.05,1.71.73s-.05,1.44-.73,1.71c-3.33,1.35-6.36,3.2-9.02,5.51-6.66,5.79-9.41,13.03-10.54,18.08-.14.61-.68,1.03-1.28,1.03Z"/>
      <path class="cls-11" d="m1679.28,405.02c-.1,0-.19-.01-.29-.03-.71-.16-1.16-.86-1-1.57,1.22-5.43,4.18-13.22,11.38-19.48.55-.48,1.38-.42,1.86.13.48.55.42,1.38-.13,1.85-6.66,5.8-9.41,13.03-10.54,18.08-.14.61-.68,1.03-1.28,1.03Z"/>
      <g>
        <path class="cls-12" d="m1931.08,53.85c-1.26.44-10.44,3.83-12.41,13.03-1.66,7.73,2.64,15.54,9.07,19.16,8.08,4.55,18.63,2,24.13-5.17,4.42-5.76,5.76-14.76.98-21.45-5.34-7.45-15.3-7.84-21.76-5.58Z"/>
        <path class="cls-12" d="m1956.88,67.11c-1.26.44-10.44,3.83-12.41,13.03-1.66,7.73,2.64,15.54,9.07,19.16,8.08,4.55,18.63,2,24.13-5.17,4.42-5.77,5.76-14.76.98-21.45-5.34-7.45-15.3-7.84-21.76-5.58Z"/>
        <path class="cls-12" d="m1960.07,39.88c-1.26.44-10.44,3.83-12.41,13.03-1.66,7.73,2.64,15.54,9.07,19.16,8.08,4.55,18.63,2,24.13-5.17,4.42-5.76,5.76-14.76.98-21.45-5.34-7.45-15.3-7.84-21.76-5.58Z"/>
        <path class="cls-12" d="m1984.51,36.98c-1.89.66-15.66,5.74-18.62,19.55-2.49,11.6,3.95,23.31,13.6,28.74,12.11,6.82,27.95,3,36.2-7.75,6.63-8.65,8.64-22.15,1.46-32.17-8.01-11.18-22.95-11.75-32.64-8.36Z"/>
        <path class="cls-12" d="m1932.68,42.06c-.65.23-5.4,2.01-6.46,6.74-.89,3.98,1.29,7.96,4.6,9.8,4.15,2.3,9.6.95,12.47-2.75,2.3-2.98,3.03-7.6.59-11.01-2.72-3.8-7.86-3.96-11.2-2.77Z"/>
        <path class="cls-12" d="m1952.69,15.35c-1.65.58-13.66,5.01-16.24,17.05-2.17,10.12,3.45,20.32,11.86,25.06,10.57,5.95,24.38,2.62,31.57-6.76,5.78-7.54,7.54-19.31,1.27-28.06-6.98-9.75-20.02-10.25-28.47-7.29Z"/>
        <path class="cls-12" d="m1981.53,23.56c-1.39.49-11.51,4.22-13.69,14.37-1.83,8.53,2.91,17.13,10,21.13,8.91,5.02,20.55,2.21,26.61-5.7,4.88-6.36,6.35-16.28,1.07-23.65-5.89-8.22-16.87-8.64-23.99-6.15Z"/>
      </g>
      <path class="cls-4" d="m1999.33,153.48c-1.01.11-4.84.66-7.77,3.89-3.57,3.93-4.85,10.78-1.29,15.54,4.18,5.6,13.04,5.65,18.13,1.3,3.94-3.37,6.04-9.74,3.24-14.89-2.57-4.73-8.11-6.29-12.3-5.83Z"/>
      <path class="cls-4" d="m2037.16,187.96c-1.41-1.01-6.92-4.69-14.34-3.93-9.04.92-18.5,8.18-19.41,18.31-1.08,11.9,10.15,22.1,21.61,22.37,8.87.21,18.82-5.5,21.15-15.27,2.13-8.97-3.14-17.29-9.01-21.48Z"/>
      <path class="cls-4" d="m2028.34,166.46c-.39-.28-1.9-1.29-3.94-1.08-2.48.25-5.08,2.25-5.33,5.03-.3,3.27,2.79,6.07,5.94,6.15,2.44.06,5.17-1.51,5.81-4.2.58-2.47-.86-4.75-2.48-5.9Z"/>
      <path class="cls-4" d="m1710.94,568.77c1.33.62,6.51,2.85,12.59,1.08,7.42-2.16,14.2-9.69,13.4-18.3-.94-10.11-11.89-16.91-21.52-15.37-7.45,1.19-14.89,7.5-15.32,16.02-.4,7.83,5.29,13.97,10.84,16.57Z"/>
      <path class="cls-4" d="m1677.77,508.23c.98,2.32,5.03,11.07,14.81,15.76,11.92,5.72,29.16,3.88,37.98-7.99,10.37-13.95,4.18-35.12-9.84-44.16-10.85-6.99-27.53-7.46-37.82,2.9-9.45,9.52-9.22,23.84-5.12,33.5Z"/>
      <path class="cls-4" d="m1668.07,542.3c.2.47,1.02,2.23,2.99,3.18,2.41,1.16,5.89.78,7.67-1.61,2.09-2.82.84-7.09-1.99-8.92-2.19-1.41-5.56-1.51-7.64.59-1.91,1.92-1.86,4.81-1.03,6.76Z"/>
      <path class="cls-4" d="m1677.83,586c.94.44,4.6,2.01,8.89.76,5.24-1.53,10.03-6.84,9.46-12.92-.66-7.14-8.4-11.94-15.19-10.85-5.26.84-10.51,5.3-10.82,11.32-.28,5.53,3.73,9.86,7.66,11.7Z"/>
      <path class="cls-13" d="m2045.93,382.47c-1.04.49-4.98,2.51-6.94,7.07-2.4,5.56-1.24,13.42,4.36,17.24,6.58,4.49,16.16,1.27,20.04-5.32,3-5.09,2.91-12.74-2.02-17.27-4.53-4.15-11.08-3.78-15.43-1.73Z"/>
      <path class="cls-10" d="m2077.95,520.66h-75.95c-9.58,0-17.34-7.76-17.34-17.34v-40.78c0-9.58,7.76-17.34,17.34-17.34h75.95c9.58,0,17.34,7.76,17.34,17.34v40.78c0,9.58-7.77,17.34-17.34,17.34Z"/>
      <path class="cls-10" d="m1997.85,466.24c-4.59-2.52-9.73,2.3-18.41.88-5.98-.98-10.41-4.39-13.15-7.02.28,2.6,1.54,11.22,8.77,17.97,11.2,10.48,26.46,6.87,27.62,6.58.71-12.72-2.11-16.93-4.82-18.41Z"/>
      <g>
        <path class="cls-12" d="m2079.44,466.32h-80.23c-.73,0-1.32-.59-1.32-1.32s.59-1.32,1.32-1.32h80.23c.73,0,1.32.59,1.32,1.32s-.59,1.32-1.32,1.32Z"/>
        <path class="cls-12" d="m2079.44,484.24h-80.23c-.73,0-1.32-.59-1.32-1.32s.59-1.32,1.32-1.32h80.23c.73,0,1.32.59,1.32,1.32s-.59,1.32-1.32,1.32Z"/>
        <path class="cls-12" d="m2033.73,502.16h-34.53c-.73,0-1.32-.59-1.32-1.32s.59-1.32,1.32-1.32h34.53c.73,0,1.32.59,1.32,1.32s-.59,1.32-1.32,1.32Z"/>
      </g>
      <path class="cls-10" d="m1656.87,0h98.03c9.58,0,17.34,7.76,17.34,17.34v55.85c0,9.58-7.76,17.34-17.34,17.34h-98.03c-9.58,0-17.34-7.76-17.34-17.34V17.34c0-9.58,7.76-17.34,17.34-17.34Z"/>
      <path class="cls-10" d="m1752.57,81.34c4.09,3.27,1.61,9.86,6.26,17.34,3.2,5.15,8.05,7.93,11.53,9.45-2.51.74-10.95,2.88-19.96-1.2-13.97-6.32-16.5-21.8-16.67-22.98,11.47-5.53,16.44-4.55,18.85-2.61Z"/>
      <g>
        <path class="cls-12" d="m1739.56,68.08h-81.01c-.73,0-1.32-.59-1.32-1.32s.59-1.32,1.32-1.32h81.01c.73,0,1.32.59,1.32,1.32,0,.73-.59,1.32-1.32,1.32Z"/>
        <path class="cls-12" d="m1754.8,46.58h-96.25c-.73,0-1.32-.59-1.32-1.32s.59-1.32,1.32-1.32h96.25c.73,0,1.32.59,1.32,1.32,0,.73-.59,1.32-1.32,1.32Z"/>
        <path class="cls-12" d="m1754.8,25.08h-96.25c-.73,0-1.32-.59-1.32-1.32s.59-1.32,1.32-1.32h96.25c.73,0,1.32.59,1.32,1.32,0,.73-.59,1.32-1.32,1.32Z"/>
      </g>
    </g>
    <g>
      <path class="cls-13" d="m378.22,466.1c3.02,21.85,2.3,47.48-13.15,65.77-8.69,10.28-15.73,10.77-22.36,21.04-13.43,20.79-7.14,53.67,5.26,72.34,26.51,39.9,103.12,48.25,153.89,15.78,50-31.97,62.96-95.88,53.93-142.05-13.15-67.23-77.6-120.82-159.15-127.58-6.14,31.57-12.28,63.13-18.41,94.7Z"/>
      <path class="cls-10" d="m254.25,152.4c-4.28-.98-10.62-2.62-18.08-5.26-25.21-8.92-38.61-20.61-48.99-26.96-23.58-14.42-58.85-17.99-83.19-7.89-37.68,15.64-52.79,65.54-52.83,99.96-.07,60.67,46.6,128.54,113.11,135.04,36.88,3.6,75.38-12.1,99.96-41.21,27.1-32.09,38.56-81.99,18.41-121.01-8.35-16.18-20.14-26.62-28.39-32.66Z"/>
      <path class="cls-10" d="m503.62,98.03c8.05,2.89,21.18,8.77,33.63,20.74,8.54,8.22,17.65,16.97,20.46,31.11,3.83,19.29-5.57,40.97-22.42,51.56-9.78,6.14-19.43,6.9-23.26,7.01-16.65.47-30.87-8.23-36.99-15.69-14.91-18.19-6.9-59.77,28.58-94.72Z"/>
      <path class="cls-12" d="m151.06,239.61c5.52,13.86,12.21,28.45,20.36,43.44,2.35,4.32,4.73,8.5,7.13,12.56-.67,1.76-2.5,5.81-6.79,8.82-.57.4-8.15,5.54-16.97,2.38-4.61-1.65-11.49-6.27-11.54-12.9-.05-6.8,7.12-13.97,17.31-14.25-3.15-6.49-6.3-13.85-9.16-22.06-2.07-5.96-3.74-11.64-5.09-16.97,1.58-.34,3.17-.68,4.75-1.02Z"/>
      <path class="cls-2" d="m411.82,390.69c22.21-7.86,40.64-12.86,53.66-16.04,3.64-.89,21.02-6.68,55.76-18.27,7.81-2.61,14.17-4.83,17.38-10.9,5.44-10.31-.92-26.59-11.44-34.75-8.8-6.82-19.25-6.99-31.78-6.2-17.93,1.12-43.68,4.41-74.94,14.19-2.88,23.99-5.76,47.98-8.64,71.97Z"/>
      <path class="cls-2" d="m356.7,472.51c23.38-8.27,42.77-13.54,56.47-16.88,3.84-.93,22.12-7.03,58.69-19.23,8.22-2.74,14.92-5.08,18.29-11.47,5.73-10.85-.97-27.99-12.04-36.57-9.26-7.18-20.26-7.35-33.45-6.53-18.87,1.18-45.98,4.64-78.88,14.93-3.03,25.25-6.06,50.5-9.09,75.75Z"/>
      <path class="cls-2" d="m142.45,519.83c-5.88,60.36,113.5,102.42,113.5,102.42,0,0,31.96-2.12,70.06-24.21,46.08-26.72,72.6-63.98,72.6-63.98,0,0,60.97-15.13,73.57-43.16,3.22-7.16-.61-16.73-3.15-25.57-1.12-3.9-7.03-20.83-53.37-31.64-51.78-12.08-96.37-3.06-110.71.07-50.09,10.95-157.45,34.17-162.5,86.07Z"/>
      <path class="cls-2" d="m442.41,317.6c22.21-7.86,40.64-12.86,53.66-16.04,3.64-.89,21.02-6.68,55.76-18.27,7.81-2.61,14.17-4.83,17.38-10.9,5.44-10.31-.92-26.59-11.44-34.75-8.8-6.82-19.25-6.99-31.78-6.2-17.93,1.12-43.68,4.41-74.94,14.19-2.88,23.99-5.76,47.98-8.64,71.97Z"/>
      <path class="cls-11" d="m413.82,517.52l-190.24-31.96c-16.95-2.85-28.39-18.9-25.54-35.85L269.22,25.98c2.85-16.95,18.9-28.39,35.86-25.54l190.24,31.96c16.95,2.85,28.39,18.9,25.54,35.85l-71.18,423.72c-2.85,16.95-18.9,28.39-35.86,25.54Z"/>
      <path class="cls-12" d="m209.72,443.66L278.29,35.5c1.16-6.93,7.72-11.6,14.65-10.43l205.81,34.57c6.92,1.16,11.6,7.72,10.43,14.65l-68.57,408.16c-1.16,6.92-7.72,11.59-14.64,10.43l-205.81-34.58c-6.92-1.16-11.6-7.72-10.43-14.65Z"/>
      <g>
        <path id="SVGID" class="cls-4" d="m209.72,443.66L278.29,35.5c1.16-6.93,7.72-11.6,14.65-10.43l205.81,34.57c6.92,1.16,11.6,7.72,10.43,14.65l-68.57,408.16c-1.16,6.92-7.72,11.59-14.64,10.43l-205.81-34.58c-6.92-1.16-11.6-7.72-10.43-14.65Z"/>
        <g class="cls-26">
          <g>
            <path class="cls-12" d="m209.86,148.45c17.06,3.98,42.32,7.29,70.37,0,20.39-5.3,28.93-12.74,59.19-27.62,22.81-11.22,51.56-25.35,76.29-30.91,20.77-4.66,59.25-7.89,113.77,19.07-3.95,24.55-7.89,49.1-11.84,73.66-4.52-.73-48.02-7.14-71.03,20.39-9.41,11.25-12.04,24.17-13.81,32.88-5.16,25.35,1.77,46.82,5.92,59.19,5.23,15.58,8.43,16.5,12.5,27.62,9.36,25.6,8.61,64.98-13.15,90.76-25.63,30.35-68.79,28.06-89.44,26.96-69.38-3.69-114.29-53.06-119.69-59.19-50.53-57.28-57.46-148.88-19.07-232.81Z"/>
            <path class="cls-13" d="m318.42,139.9c6.48-2.49,14.12-4.56,22.74-5.26,23.43-1.9,42.33,7.26,53.66,14.47.61-9.64,1.21-19.29,1.82-28.94-5.35-5.63-26.49-26.46-54.57-21.04-14.25,2.75-24.84,11.21-30.92,17.1.06.19,5.14,16.74,5.2,16.92,0,.03,2.07,6.72,2.08,6.75Z"/>
            <path class="cls-13" d="m311.29,116.72c2.22,8.84,4.31,18.01,6.24,27.49,4.61,22.64,7.69,44.14,9.66,64.23-1.93-1.39-13.79-9.66-27.8-5.99-16.02,4.2-21.72,20.59-23.24,24.96-8.62,24.78,9.31,47.3,10.44,48.67.99,1.2,20.19,23.73,49.33,19.55,20.82-2.99,32.67-17.6,35.23-20.91-5.16-23.2-10.97-47.12-17.5-71.67-8.48-31.88-17.5-62.26-26.83-91.08-5.17,1.59-10.35,3.17-15.53,4.76Z"/>
            <path class="cls-13" d="m405.82,244.33c-12.14,30.5-26.86,62.59-44.8,95.57-5.17,9.5-10.4,18.7-15.68,27.63,1.48,3.86,5.5,12.78,14.93,19.41,1.25.88,17.93,12.19,37.33,5.23,10.15-3.64,25.28-13.8,25.39-28.37.11-14.97-15.66-30.73-38.08-31.36,6.94-14.27,13.87-30.47,20.16-48.53,4.56-13.11,8.23-25.62,11.2-37.33-3.48-.75-6.97-1.49-10.45-2.24Z"/>
            <polygon class="cls-10" points="458.92 109.18 461.62 129.64 487.39 143.04 463.61 148.88 462.37 186.44 446.7 158.37 426.22 170 436.76 146.33 420.91 132.76 442.4 129.64 458.92 109.18"/>
            <polygon class="cls-10" points="310.18 321.4 316.62 346.19 333.72 355.17 316.75 361.06 314.05 385.29 302.3 365.5 272.86 377.34 289.97 355.27 278.92 337.64 301.14 340.18 310.18 321.4"/>
            <polygon class="cls-10" points="329.21 431.59 319.84 416.55 304.89 422.36 312.31 407.54 300.08 398.73 317.88 398.19 328.84 381.49 328.84 398.87 344.87 405.73 330.9 410.27 329.21 431.59"/>
            <polygon class="cls-4" points="426.74 102.76 427.57 109.01 435.44 113.1 428.18 114.89 427.8 126.36 423.01 117.78 416.76 121.34 419.98 114.11 415.14 109.96 421.7 109.01 426.74 102.76"/>
            <polygon class="cls-4" points="420.91 96.91 417.49 99.43 417.63 105.41 414.22 101.7 407.32 105.2 410.83 99.59 406.7 97.05 412.01 96.6 412.89 92.4 415.58 95.97 420.91 96.91"/>
            <polygon class="cls-4" points="439.65 89.71 441 94.9 444.58 96.79 441.02 98.02 440.46 103.1 438 98.95 431.83 101.43 435.41 96.81 433.09 93.11 437.75 93.64 439.65 89.71"/>
            <polygon class="cls-4" points="445.99 116.81 444.03 113.66 440.89 114.88 442.45 111.77 439.89 109.93 443.62 109.81 445.92 106.31 445.92 109.95 449.27 111.39 446.35 112.34 445.99 116.81"/>
            <polygon class="cls-4" points="467.91 107.69 472.36 104.69 472.94 100.68 475.29 103.62 480.27 102.46 477.18 106.17 481.57 111.16 476.02 109.32 473.31 112.73 472.25 108.16 467.91 107.69"/>
            <polygon class="cls-4" points="492.27 125.87 489.19 123.92 484.46 125.9 486.36 122.02 481.4 117.6 486.98 118.65 487.72 114.56 489.74 118.67 493.37 118.05 491.36 121.32 492.27 125.87"/>
            <polygon class="cls-4" points="469.79 128.62 469.04 124.98 465.67 125.04 468.21 122.66 466.44 120.04 469.98 121.22 473.35 118.74 472.09 122.16 474.74 124.67 471.67 124.55 469.79 128.62"/>
            <polygon class="cls-4" points="340.95 332.98 340.2 326.72 332.38 322.54 339.66 320.84 340.18 309.38 344.86 318 351.15 314.52 347.85 321.72 352.64 325.91 346.07 326.79 340.95 332.98"/>
            <polygon class="cls-4" points="327.9 345.88 326.61 340.67 323.05 338.75 326.62 337.56 327.24 332.49 329.66 336.66 335.86 334.25 332.22 338.84 334.49 342.56 329.84 341.97 327.9 345.88"/>
            <polygon class="cls-4" points="321.87 318.71 323.8 321.88 326.94 320.7 325.35 323.79 327.89 325.67 324.16 325.74 321.82 329.21 321.87 325.57 318.52 324.09 321.46 323.17 321.87 318.71"/>
            <polygon class="cls-4" points="299.84 327.58 295.36 330.53 294.73 334.53 292.42 331.56 287.43 332.66 290.56 328.99 286.23 323.95 291.76 325.85 294.51 322.47 295.51 327.05 299.84 327.58"/>
            <polygon class="cls-4" points="298.21 306.63 298.92 310.27 302.28 310.25 299.72 312.6 301.46 315.24 297.93 314.02 294.54 316.47 295.84 313.06 293.21 310.52 296.29 310.68 298.21 306.63"/>
            <polygon class="cls-4" points="350.94 396.55 346.96 395.1 342.05 398.52 343.25 393.62 336.52 389.81 343.14 389.63 342.97 384.79 346.28 388.97 350.27 387.37 348.79 391.59 350.94 396.55"/>
            <polygon class="cls-4" points="367.31 408.18 363.73 412.18 364.14 416.21 361.14 413.92 356.6 416.26 358.69 411.91 353.21 408.15 359.05 408.58 360.85 404.6 362.98 408.78 367.31 408.18"/>
            <polygon class="cls-4" points="348.24 428.45 349.78 425.08 347.03 423.14 350.48 422.72 350.6 419.56 352.76 422.6 356.94 422.58 353.91 424.6 354.57 428.19 352.15 426.28 348.24 428.45"/>
            <path class="cls-4" d="m433.02,192.68c-4.1-4.27-10.66-3.55-12.23-3.37-.97.11-12.08,1.52-14.76,10.96-1.62,5.72.43,12.34,5.48,16.02,6,4.37,13.86,2.87,18.55-.84,7.04-5.57,8.32-17.18,2.95-22.77Z"/>
            <path class="cls-4" d="m410.69,179.47c-1.66-1.73-4.31-1.43-4.95-1.36-.39.04-4.89.61-5.97,4.43-.66,2.31.17,4.99,2.22,6.48,2.42,1.77,5.6,1.16,7.5-.34,2.85-2.25,3.37-6.95,1.19-9.21Z"/>
          </g>
        </g>
      </g>
      <path class="cls-2" d="m259.62,513.03c24.45-104.83-24.98-180.71-24.98-180.71,28.46-45.65,27.47-94.94,25.67-108.45-.78-5.81-4.1-30.61-23.65-41.27-5.76-3.14-11.34-4.19-15.26-4.55-.45,8.84-1.83,21.83-6.3,36.83-4.16,13.97-9.14,23.43-18.05,40.17-8.68,16.3-16.35,28.63-27.62,46.69-17.84,28.58-19.62,29.57-23.42,39.15-4.14,10.44-1.48,17.29-9.74,44.41-17.35,56.97-21.04,83.26-17.68,124.25,2.22,3.7,13.02,41.59,66.62,41.89,25.91.14,67.57-9.05,74.42-38.39Z"/>
      <path class="cls-2" d="m471.43,494.68c3.97-9.38,5.9-40.4-9.7-49.47-23.96-5.58-32.39,10.53-32.96,17.58-2.01,24.56,33.33,41.69,42.66,31.89Z"/>
      <path class="cls-2" d="m122.63,488.09c-12.66,9.44-25.53,19.46-38.54,30.1-28.19,23.05-53.62,46.19-76.47,68.75,2.98,13.96,5.6,27.44,21.5,47.87,37.01,47.54,108.34,65.01,119.29,65.56,18.91-18.25,40.01-37.16,63.42-56.17,18.24-14.81,36.08-28.2,53.24-40.29-7.34-15.98-35.61-53.91-60.02-76.7-33.03-30.84-64.23-34.58-82.43-39.12Z"/>
      <path class="cls-2" d="m490.16,424.92c4.78-11.3,16.92-39.23-12.94-51.79-28.86-6.72-39.01,12.68-39.7,21.17-2.41,29.58,41.41,42.43,52.64,30.62Z"/>
      <path class="cls-11" d="m147.6,547.21c-.25,0-.5-.07-.72-.21-7.3-4.78-17.49-13.38-24.57-27.25-4.4-8.62-6.96-17.94-7.59-27.7-.05-.72.5-1.35,1.23-1.4.77-.06,1.35.5,1.4,1.23.61,9.4,3.08,18.37,7.31,26.67,6.82,13.35,16.63,21.64,23.66,26.24.61.4.78,1.22.38,1.82-.25.39-.67.59-1.1.59Z"/>
      <path class="cls-11" d="m255.94,623.57c-.12,0-.23-.02-.35-.05-6.86-1.89-13.59-4.23-20-6.97-7.09-3.03-13.9-6.58-20.24-10.57-.61-.39-.8-1.2-.41-1.82.39-.61,1.2-.8,1.82-.41,6.22,3.91,12.9,7.4,19.86,10.38,6.3,2.69,12.91,4.99,19.66,6.85.7.19,1.11.92.92,1.62-.16.58-.69.96-1.27.96Z"/>
      <path class="cls-11" d="m125.03,541.95c-.44,0-.86-.22-1.11-.61-11.22-17.74-13.87-32.15-9.15-49.71.19-.7.92-1.11,1.61-.93.7.19,1.12.91.93,1.61-4.51,16.78-1.95,30.57,8.83,47.62.39.61.2,1.43-.41,1.82-.22.14-.46.2-.7.2Z"/>
      <path class="cls-16" d="m226.27,179.88c7.42,5.87,14.2,16.75,14.2,31.35,0,10.67-6.65,25.73-9.99,33.02-3.3.65-22.62-2.89-25.86-3.62,9.87-30.53,8.89-70.85,21.66-60.75Z"/>
      <path class="cls-11" d="m209.6,367.84c-.37,0-.74-.16-1-.46-.47-.55-.41-1.39.14-1.85,4.73-4.05,9.1-8.56,12.98-13.41,4.98-6.23,9.2-13.07,12.55-20.33.3-.66,1.08-.95,1.75-.64.66.3.95,1.09.64,1.74-3.44,7.46-7.77,14.48-12.88,20.88-3.98,4.99-8.47,9.62-13.33,13.77-.25.21-.55.32-.86.32Z"/>
      <path class="cls-11" d="m251.55,535.37c-.19,0-.39-.04-.57-.13-.65-.32-.93-1.1-.61-1.76,4.6-9.55,8.25-19.59,10.85-29.86,2.1-8.29,3.54-16.83,4.27-25.38.06-.72.72-1.29,1.42-1.2.73.06,1.26.7,1.2,1.42-.74,8.68-2.2,17.37-4.34,25.8-2.64,10.43-6.36,20.64-11.03,30.35-.23.47-.7.74-1.19.74Z"/>
      <path class="cls-11" d="m269.19,526.4c-.08,0-.16,0-.24-.02-.71-.13-1.19-.82-1.05-1.53,1.36-7.31,1.73-14.46,1.11-21.26-.5-5.49-1.66-10.81-3.45-15.81-.24-.69.11-1.44.8-1.68.68-.24,1.44.11,1.68.8,1.86,5.22,3.06,10.75,3.59,16.46.65,7.03.26,14.43-1.14,21.97-.12.63-.67,1.08-1.29,1.08Z"/>
      <path class="cls-16" d="m442.21,449.78c-3.71,1.26,1.61,26.62,14.09,30.91,3.26-.48,6.52-.96,9.78-1.44,2.95-16.1-5.21-29.8-5.21-29.8,0,0-9.4-2.8-18.65.34Z"/>
      <path class="cls-16" d="m461.45,377.54c-4.1,1.14-1.88,33.29,10.76,40.04,3.52-.22,7.03-.45,10.55-.67,5.29-19.68-1.51-37.65-1.51-37.65,0,0-9.58-4.55-19.8-1.72Z"/>
      <path class="cls-11" d="m477.85,432.19s-.05,0-.08,0c-4.19-.25-8.37-.93-12.42-2.01-2.97-.79-5.91-1.81-8.73-3.02-.67-.29-.98-1.06-.69-1.73s1.06-.97,1.73-.69c2.7,1.16,5.52,2.14,8.37,2.9,3.88,1.03,7.89,1.68,11.91,1.93.72.04,1.28.67,1.23,1.39-.04.7-.62,1.24-1.31,1.24Z"/>
      <path class="cls-11" d="m463.03,498.12s-.05,0-.08,0c-4.2-.26-8.38-.94-12.42-2.01-2.96-.79-5.89-1.8-8.73-3.02-.67-.29-.98-1.06-.69-1.73.29-.67,1.06-.97,1.73-.69,2.72,1.17,5.54,2.15,8.37,2.9,3.88,1.03,7.89,1.68,11.91,1.93.73.04,1.28.67,1.23,1.4-.05.7-.62,1.23-1.31,1.23Z"/>
      <path class="cls-11" d="m396.63,528.57c-.54,0-1.05-.33-1.24-.87-1.03-2.86-2.23-5.69-3.56-8.42-3.8-7.77-8.81-14.96-14.9-21.37-.5-.53-.48-1.36.05-1.86.53-.5,1.36-.47,1.86.05,6.27,6.61,11.44,14.02,15.35,22.03,1.38,2.81,2.61,5.73,3.67,8.68.25.68-.11,1.44-.79,1.68-.15.05-.3.08-.45.08Z"/>
      <path class="cls-10" d="m247.35,63.62c-2.27,2.24-7.87,8.39-8.22,17.1-.67,16.71,18.72,26.02,20.06,26.63,13.42,6.2,29.36,3.08,40.12-5.26,18.37-14.26,15.3-38.88,14.8-42.42-4.28-30.2-35.6-41.76-37.49-42.42-14.06-4.92-36.54-6.34-45.71,5.59-3.76,4.89-6.12,13.12-2.96,17.43,3.62,4.94,12.05,1.41,17.1,6.58,4.13,4.22,3.4,11.6,2.3,16.77Z"/>
      <path class="cls-10" d="m204.08,66.94c-2.95-1.97-8.93-5.98-16.46-4.5-7.15,1.4-12.37,7.1-14.42,12.64-4.11,11.09,2.6,26.61,15.57,30.59,11.59,3.56,25.86-2.8,28.81-13.64,3.61-13.31-12.3-24.29-13.5-25.09Z"/>
      <path class="cls-10" d="m226.44,49.59c-4.67-1.93-11.73,2.68-12.49,8.55-.42,3.19.94,7.44,4.6,9.21,3.86,1.86,8.3.03,10.52-2.63,3.87-4.64,2.12-13.16-2.63-15.12Z"/>
      <path class="cls-4" d="m532.48,446.12c-11.04-1.04-19.59,12.64-19.95,13.23-7.2,11.84-7.66,31.97,5.19,39.54,10.91,6.43,26.85,1.12,33.34-8.87,10.32-15.88-3.98-42.54-18.58-43.91Z"/>
      <path class="cls-4" d="m510.64,517.67c-.34-3.15-1.02-9.53-6.34-13.83-5.05-4.09-11.93-4.4-16.9-2.63-9.94,3.54-16.72,17.01-12.02,28.17,4.2,9.97,16.72,16.09,25.82,11.9,11.17-5.15,9.57-22.32,9.43-23.6Z"/>
      <path class="cls-4" d="m536.5,519.41c-1.35-4.3-8.54-6.49-13-3.65-2.42,1.54-4.55,4.9-3.66,8.42.93,3.7,4.73,5.7,7.82,5.69,5.39,0,10.21-6.08,8.84-10.46Z"/>
      <path class="cls-12" d="m91.14,203.94c2.28-.68,4.97-1.25,8-1.44,8.25-.52,14.9,1.98,18.88,3.95.21-2.64.43-5.27.64-7.91-1.88-1.54-9.32-7.23-19.2-5.75-5.02.75-8.74,3.06-10.88,4.67.02.05,1.81,4.57,1.83,4.62,0,0,.73,1.84.73,1.84Z"/>
      <path class="cls-12" d="m91.69,198.45c.51,2.04.99,4.15,1.44,6.33,1.06,5.21,1.77,10.17,2.23,14.79-.44-.32-3.18-2.23-6.4-1.38-3.69.97-5,4.74-5.35,5.75-1.99,5.71,2.14,10.89,2.4,11.21.23.28,4.65,5.47,11.36,4.5,4.8-.69,7.52-4.05,8.11-4.82-1.19-5.35-2.53-10.85-4.03-16.51-1.95-7.34-4.03-14.34-6.18-20.98-1.19.37-2.39.73-3.58,1.1Z"/>
      <path class="cls-12" d="m114.32,198.9c1.19,6.82,2.79,14.04,4.92,21.54.61,2.16,1.25,4.26,1.9,6.3-.38.79-1.35,2.59-3.21,3.77-.25.16-3.51,2.15-6.7.18-1.67-1.03-4.01-3.58-3.58-6.7.44-3.2,3.68-6.17,7.63-5.74-.78-3.22-1.5-6.86-2.05-10.87-.4-2.92-.66-5.68-.82-8.26.64-.07,1.27-.14,1.9-.21Z"/>
      <path class="cls-12" d="m177.28,150.94c-2.3-.89-5.02-1.62-8.09-1.87-8.33-.68-15.06,2.58-19.08,5.15-.22-3.43-.43-6.86-.65-10.29,1.9-2,9.42-9.41,19.41-7.48,5.07.98,8.84,3.98,11,6.08-.02.07-1.83,5.95-1.85,6.02,0,0-.73,2.39-.74,2.4Z"/>
      <path class="cls-12" d="m179.68,142.5c-.91,3.63-1.77,7.39-2.56,11.29-1.89,9.3-3.16,18.12-3.97,26.37.79-.57,5.66-3.97,11.42-2.46,6.58,1.73,8.92,8.45,9.54,10.25,3.54,10.17-3.82,19.42-4.29,19.98-.4.49-8.29,9.74-20.25,8.02-8.55-1.23-13.41-7.22-14.46-8.59,2.12-9.53,4.5-19.35,7.19-29.42,3.48-13.09,7.19-25.56,11.01-37.39,2.12.65,4.25,1.3,6.37,1.95Z"/>
      <polygon class="cls-4" points="62.14 415.36 69.7 393.24 50.29 366.65 77.37 372.69 97.55 335.19 99.32 371.58 125.96 370.08 103.34 388.81 112.6 410.56 89.21 402.91 62.14 415.36"/>
      <polygon class="cls-4" points="47.78 483.34 51.86 463.84 43.05 451.67 56.91 453.43 67.16 437.48 68.51 455.34 93.12 457.26 73.57 466.72 75.17 482.83 60.56 473.38 47.78 483.34"/>
      <polygon class="cls-4" points="29.29 390.69 30.62 404.4 43.05 405.53 32.75 413.29 38.23 423.65 25.64 417.88 12.23 425.73 18.24 413.61 9.44 403.29 20.74 404.96 29.29 390.69"/>
      <polygon class="cls-4" points="549.94 98.81 560.82 95.97 564.76 88.45 567.35 95.9 578 97.07 569.31 102.25 574.53 115.17 564.83 107.67 557.09 112.53 558.19 102.77 549.94 98.81"/>
      <polygon class="cls-4" points="585.43 151.69 580.7 145.71 569.97 146.33 576.42 139.97 569.7 127.8 580 133.75 584.3 126.18 585.44 135.69 593.04 137 586.81 142.07 585.43 151.69"/>
    </g>
    <g>
      <path class="cls-4" d="m1194.06,258.28c-2.43,0-4.85-.93-6.71-2.78-3.7-3.7-3.7-9.71,0-13.42l86.36-86.36c3.7-3.7,9.71-3.7,13.42,0,3.7,3.7,3.7,9.71,0,13.42l-86.36,86.36c-1.85,1.85-4.28,2.78-6.71,2.78Z"/>
      <path class="cls-4" d="m836.72,328.1c-2.43,0-4.85-.93-6.71-2.78-3.7-3.7-3.7-9.71,0-13.42l86.36-86.36c3.7-3.7,9.71-3.7,13.42,0,3.7,3.7,3.7,9.71,0,13.42l-86.36,86.36c-1.85,1.85-4.28,2.78-6.71,2.78Z"/>
      <path class="cls-4" d="m844.85,277.59c-2.43,0-4.85-.93-6.71-2.78-3.7-3.7-3.7-9.71,0-13.42l86.36-86.36c3.7-3.7,9.71-3.7,13.42,0,3.7,3.7,3.7,9.71,0,13.42l-86.36,86.36c-1.85,1.85-4.28,2.78-6.71,2.78Z"/>
      <path class="cls-4" d="m801.67,436.81c-2.43,0-4.86-.93-6.71-2.78-3.71-3.71-3.71-9.71,0-13.42l86.36-86.36c3.7-3.7,9.71-3.7,13.42,0,3.7,3.7,3.7,9.71,0,13.42l-86.36,86.36c-1.85,1.85-4.28,2.78-6.71,2.78Z"/>
      <path class="cls-10" d="m998.24,309.62c-49.67,22.62-72.68,48.38-83,61.58-9.3,11.9-50.87,68.02-40.16,131.2,14.53,85.77,116.65,133.03,187.43,143.25,85.55,12.35,204.42-17.98,253.02-117.81,30.72-63.08,33.2-153.57-16.06-210.18-88.29-101.45-277.33-18.91-301.22-8.03Z"/>
      <path class="cls-3" d="m1196.43,290.39c5.4-21.04,11.02-37.72,15.28-49.31,1.19-3.25,5.68-19.52,14.65-52.08,2.02-7.32,3.58-13.33.58-18.9-5.1-9.46-20.83-12.95-32.47-9.09-9.74,3.23-15.23,11.15-21.07,21.15-8.35,14.3-19.06,35.71-27.63,64.66,16.89,14.52,33.78,29.05,50.67,43.57Z"/>
      <path class="cls-3" d="m1154.5,417.98c16.55-19.98,31.13-35.13,41.65-45.49,2.94-2.9,16.08-18.2,42.37-48.79,5.91-6.88,10.67-12.58,10.26-20.11-.69-12.79-15.92-24.52-30.47-26.25-12.17-1.44-22.15,4.32-33.55,12.16-16.31,11.21-38.8,28.89-62.81,55.81,10.85,24.23,21.7,48.45,32.55,72.68Z"/>
      <path class="cls-3" d="m1156.18,229.43c5.4-21.04,11.02-37.72,15.28-49.31,1.19-3.24,5.68-19.52,14.65-52.07,2.02-7.32,3.58-13.33.58-18.9-5.1-9.46-20.83-12.95-32.48-9.09-9.74,3.23-15.23,11.15-21.07,21.15-8.35,14.3-19.06,35.71-27.63,64.66,16.89,14.52,33.78,29.05,50.67,43.57Z"/>
      <path class="cls-3" d="m1184.46,468.14c16.08-19.46,30.24-34.21,40.45-44.3,2.86-2.82,15.62-17.72,41.16-47.52,5.74-6.7,10.36-12.25,9.96-19.59-.68-12.47-15.5-23.92-29.66-25.62-11.84-1.42-21.53,4.19-32.61,11.82-15.85,10.91-37.7,28.12-61.03,54.33,10.58,23.62,21.15,47.25,31.73,70.88Z"/>
      <path class="cls-3" d="m1135.65,338.24c33.86,4.38,45.13,15.18,48.05,18.18,14.74,15.16,9,35.81,14.4,62.89,18.44,92.54-11.46,150.11-11.46,150.11,0,0-52.52,33.21-66.67,35.73-8.67,1.54-83.68,13.69-129.36-36.82-28.93-31.97-28.94-70.08-28.94-89.13,0-19.48-.03-79.16,49.2-117.32,43.97-34.09,96.61-27.28,124.79-23.63Z"/>
      <path class="cls-3" d="m880.42,422.93c12.87,20.07,61.51,180.89,106.21,185.78,18.8,2.06,55.29-10.84,72.91-25.71,21.53-18.17,10.31-59.36,6.86-72.05-10.92-40.11-39.54-64.39-57.6-79.72-22.54-19.12-44.41-30.28-59.13-36.61-9.08-28.93-75.77,18.15-69.25,28.3Z"/>
      <path class="cls-3" d="m1174.09,556.31c-1.27,22.38-24.76,119.3-25,137.9-3.51,7.45-9.98,18.91-21.4,29.47-43.75,40.47-110.21,21.56-114.46,20.28-10.9-3.28-29.07-10.35-48.06-26.62,5.57-23.52,10.53-49.53,14.15-77.79,5.28-41.19,6.64-78.82,5.95-111.72,26.54,2.81,56.78,7.68,89.63,15.94,29.47,7.41,76.39,3.6,99.19,12.55Z"/>
      <path class="cls-11" d="m1072.87,539.83l178.33-82.17c15.89-7.32,22.84-26.14,15.52-42.03L1083.69,18.43c-7.32-15.89-26.14-22.84-42.04-15.52l-178.33,82.17c-15.89,7.32-22.84,26.14-15.52,42.04l183.02,397.18c7.32,15.89,26.14,22.84,42.04,15.52Z"/>
      <g>
        <path id="SVGID-2" data-name="SVGID" class="cls-12" d="m1253.63,412.8L1077.33,30.21c-2.99-6.49-10.68-9.33-17.17-6.34l-192.92,88.9c-6.49,2.99-9.33,10.68-6.34,17.17l176.3,382.59c2.99,6.49,10.68,9.33,17.17,6.34l192.92-88.9c6.49-2.99,9.33-10.68,6.34-17.17Z"/>
        <g class="cls-32">
          <g>
            <polygon class="cls-4" points="961.66 54.08 1248.79 341.2 1344.4 163.05 1016.4 -84.58 961.66 54.08"/>
            <polygon class="cls-4" points="924.16 77.41 1283.03 436.28 1304.24 415.07 1265.38 512.4 895.92 608.92 759.36 98.91 924.16 77.41"/>
          </g>
        </g>
        <g class="cls-23">
          <polygon class="cls-12" points="1061.92 188.08 882.97 367.03 928.59 412.65 1110.95 230.28 1061.92 188.08"/>
        </g>
        <g class="cls-24">
          <path class="cls-10" d="m1174.4,519.5l-37.57-37.57c-20.75-20.75-20.75-54.39,0-75.13h0c20.75-20.75,54.39-20.75,75.13,0h0c20.75,20.75,20.75,54.39,0,75.13l-37.57,37.57Z"/>
        </g>
        <g class="cls-31">
          <path class="cls-12" d="m1157.05,461.71h0c-9.58-9.58-9.58-25.1,0-34.68h0c9.58-9.58,25.1-9.58,34.68,0h0c9.58,9.58,9.58,25.1,0,34.68h0c-9.58,9.58-25.11,9.58-34.68,0Z"/>
        </g>
        <g class="cls-28">
          <path class="cls-12" d="m1083.8,202.38c-.34,0-.69-.13-.95-.39-.52-.52-.52-1.37,0-1.89l53.25-53.25c.53-.52,1.37-.52,1.9,0,.52.52.52,1.37,0,1.89l-53.25,53.25c-.26.26-.6.39-.95.39Z"/>
        </g>
        <g class="cls-33">
          <path class="cls-12" d="m1098.28,168.32c-.34,0-.69-.13-.95-.39-.52-.52-.52-1.37,0-1.89l53.25-53.25c.53-.52,1.37-.52,1.9,0,.52.52.52,1.37,0,1.89l-53.25,53.25c-.26.26-.6.39-.95.39Z"/>
        </g>
        <g class="cls-1">
          <path class="cls-12" d="m922.13,282.7c-.34,0-.69-.13-.95-.39-.52-.52-.52-1.37,0-1.89l53.25-53.25c.53-.52,1.37-.52,1.9,0,.52.52.52,1.37,0,1.89l-53.25,53.25c-.26.26-.6.39-.95.39Z"/>
        </g>
      </g>
      <path class="cls-3" d="m931.76,422.83c21.34-13.55,37.53-39.67,38.73-68.49,1.85-44.47-32.39-81.48-42.13-78.77-6.51,1.81-4.41,15.71-13.49,47.16-3.9,13.5-5.97,15.75-18.06,46.31-13.32,33.67-21.34,38.11-18.48,48.6.57,2.1,2.83,9.32,9.31,13.55,15.25,9.97,39.96-5.72,44.12-8.36Z"/>
      <path class="cls-11" d="m902.76,433.75c-.73,0-1.32-.58-1.34-1.31-.02-.74.57-1.35,1.31-1.37,5.24-.11,41.33-10.35,52.62-33.92.32-.67,1.12-.95,1.79-.63.67.32.95,1.12.63,1.79-12,25.07-49.28,35.32-54.98,35.44h-.03Z"/>
      <path class="cls-11" d="m930.16,440.19c-.46,0-.9-.23-1.15-.66-.38-.64-.17-1.46.47-1.84,4.83-2.86,9.08-6.53,12.61-10.9,4.58-5.66,6.72-13.78,6.77-18.93,0-.73.61-1.33,1.34-1.33h.01c.74,0,1.33.61,1.33,1.35-.06,5.6-2.38,14.44-7.37,20.59-3.74,4.61-8.22,8.49-13.33,11.52-.21.13-.45.19-.68.19Z"/>
      <g>
        <path class="cls-3" d="m1072.73,561.51c-1.81-6.41-5.61-16.73-13.81-26.66-13.48-16.33-30.13-21.04-36.41-22.45-.43,5.8-.15,14.45,3.9,23.17,7.7,16.58,25.81,26.48,46.31,25.94Z"/>
        <path class="cls-11" d="m1072.73,562.85c-.58,0-1.12-.38-1.29-.97-2.78-9.84-7.34-18.65-13.55-26.17-12.33-14.93-27.64-20.19-35.67-21.99-.72-.16-1.18-.88-1.01-1.6.16-.72.88-1.16,1.6-1.01,8.36,1.88,24.31,7.35,37.15,22.91,6.44,7.81,11.18,16.94,14.06,27.15.2.71-.21,1.45-.92,1.65-.12.03-.25.05-.37.05Z"/>
      </g>
      <path class="cls-11" d="m1117.08,600.18c-.59,0-1.14-.4-1.29-1-.19-.72.24-1.45.95-1.64,12.44-3.29,37.36-12.47,53.32-19.66.68-.31,1.47,0,1.77.67.31.67,0,1.47-.67,1.77-16.07,7.24-41.18,16.5-53.73,19.81-.11.03-.23.04-.34.04Z"/>
      <path class="cls-11" d="m1024.49,612.93c-7.32,0-14.68-.41-21.95-1.22-8.36-.94-16.73-2.42-24.87-4.42-.72-.18-1.16-.9-.98-1.62.18-.72.9-1.16,1.62-.98,8.03,1.97,16.28,3.43,24.53,4.36,8.3.93,16.74,1.33,25.08,1.18.72-.1,1.35.58,1.36,1.32.01.74-.57,1.35-1.31,1.36-1.16.02-2.32.03-3.48.03Z"/>
      <path class="cls-16" d="m930,277.34c6.09,7.58,11.16,20.79,9.66,37.44-.41,4.49-3.79,19.85-7.53,27.77-3.03.34-20.07-5.98-22.91-7.2,11.92-33.64,10.3-71.04,20.78-58.01Z"/>
      <path class="cls-11" d="m1141.35,606.09c-.45,0-.89-.22-1.14-.64-.39-.63-.19-1.45.44-1.84,6.94-4.29,13.43-9.3,19.29-14.91,3.42-3.27,6.66-6.78,9.64-10.44.46-.57,1.31-.66,1.89-.19.57.47.66,1.31.19,1.89-3.05,3.74-6.37,7.33-9.86,10.68-5.99,5.73-12.63,10.87-19.73,15.25-.22.14-.46.2-.7.2Z"/>
      <path class="cls-3" d="m1248.78,298.44c-1.96-13.89-6.48-48.41-43.14-43.17-32.24,10.38-30.78,35.38-26.47,44.11,15.03,30.42,65.55,17.24,69.61-.94Z"/>
      <path class="cls-16" d="m1193.83,271.37c-3.14,3.31,16.65,31.67,32.01,30.91,3.11-2.15,6.22-4.3,9.34-6.45-6-21.04-22.18-33.82-22.18-33.82,0,0-11.33,1.1-19.17,9.35Z"/>
      <path class="cls-11" d="m1217,320.2c-.66,0-1.23-.49-1.33-1.16-.1-.73.42-1.41,1.15-1.51,3.34-.45,6.68-1.15,9.93-2.08,4.43-1.27,8.74-3,12.84-5.12.66-.34,1.47-.09,1.81.57.34.66.09,1.46-.57,1.81-4.25,2.21-8.74,3.99-13.33,5.32-3.37.97-6.84,1.7-10.31,2.17-.06,0-.12.01-.18.01Z"/>
      <path class="cls-3" d="m1276.03,356.73c-1.74-12.37-5.77-43.1-38.41-38.43-28.71,9.24-27.41,31.5-23.56,39.27,13.38,27.08,58.36,15.35,61.98-.84Z"/>
      <path class="cls-16" d="m1226.82,331.95c-2.85,3,15.12,28.76,29.06,28.07,2.83-1.95,5.65-3.9,8.48-5.85-5.45-19.1-20.14-30.71-20.14-30.71,0,0-10.29,1-17.4,8.49Z"/>
      <path class="cls-11" d="m1247.75,376.25c-.66,0-1.23-.49-1.32-1.16-.1-.73.41-1.41,1.15-1.51,2.98-.4,5.94-1.03,8.82-1.85,3.93-1.13,7.77-2.66,11.4-4.55.65-.34,1.46-.08,1.81.57.34.66.08,1.46-.57,1.81-3.79,1.97-7.8,3.57-11.9,4.75-3,.86-6.1,1.51-9.2,1.93-.06,0-.12.01-.18.01Z"/>
      <path class="cls-10" d="m1096.16,144.55l-40.01-40.01c-22.1-22.1-22.1-57.92,0-80.02h0c22.1-22.1,57.92-22.1,80.02,0h0c22.1,22.1,22.1,57.92,0,80.02l-40.01,40.01Z"/>
      <path class="cls-12" d="m1077.69,83h0c-10.2-10.2-10.2-26.74,0-36.94h0c10.2-10.2,26.74-10.2,36.94,0h0c10.2,10.2,10.2,26.74,0,36.94h0c-10.2,10.2-26.74,10.2-36.94,0Z"/>
      <path class="cls-10" d="m1035.18,409.65l-29.24-29.24c-16.15-16.15-16.15-42.33,0-58.48h0c16.15-16.15,42.33-16.15,58.48,0h0c16.15,16.15,16.15,42.33,0,58.48l-29.24,29.24Z"/>
      <path class="cls-12" d="m1021.68,364.67h0c-7.45-7.45-7.45-19.54,0-26.99h0c7.45-7.45,19.54-7.45,26.99,0h0c7.45,7.45,7.45,19.54,0,26.99h0c-7.45,7.45-19.54,7.45-26.99,0Z"/>
      <path class="cls-13" d="m889.01,185.45c10.99,18.93,34.21,20.62,36.4,20.74,22.71,1.29,42.4-16.15,51.23-31.33,21.37-36.71,1.12-97.86-40.83-127.61-33.39-23.68-82.46-28.85-118.7-5.9-4.35,2.76-43.98,28.71-42.51,69.82.7,19.64,21.61,79.44,78.13,47.41,11.46-6.5,31.68,18.97,36.27,26.87Z"/>
      <path class="cls-13" d="m826.97,195.89c-8.91-2.23-16.54,2.92-18.07,4.02-8.3,5.91-12.95,17.38-9.37,28.11,2.86,8.59,10.9,16.44,21.42,16.73,11.15.31,19.88-7.99,22.76-16.73,4.38-13.33-4.4-29.05-16.74-32.13Z"/>
      <path class="cls-13" d="m788.15,169.78c-5.08.16-10.34,4.62-10.71,10.71-.37,6.09,4.31,11.27,10.04,12.05,5.19.7,10.36-2.32,12.05-6.69,2.68-6.94-3.82-16.3-11.38-16.07Z"/>
      <path class="cls-12" d="m929.39,178.49c5.94,2.54,12.4-1.15,12.72-1.34,9.57-5.65,10.39-21.64,7.36-32.13-.93-3.23-5.32-16.65-18.74-22.09-11.89-4.82-29.68-2.9-35.48,8.7-3.41,6.82-2.51,16.67,2.68,22.09,5.73,5.99,12.01,1.66,19.41,8.03,7.23,6.23,5.25,13.83,12.05,16.73Z"/>
      <path class="cls-13" d="m1277.46,221.95c-12.32-3.24-31.82,7.36-34.81,21.15-1.46,6.72.4,17.01,10.71,22.21,10.63,5.36,24.76,2.54,32.13-3.17,14.38-11.13,6.92-36.25-8.03-40.18Z"/>
      <path class="cls-13" d="m1292.91,285.15c-9.13,1.01-14.49,8.48-15.55,10.04-5.73,8.42-6.1,20.8.98,29.62,5.67,7.07,15.93,11.63,25.9,8.25,10.56-3.58,15.87-14.4,15.53-23.6-.52-14.03-14.22-25.71-26.85-24.32Z"/>
      <path class="cls-13" d="m1315.05,251.44c-4.7,1.91-8.09,7.93-6.32,13.76,1.77,5.84,7.96,9.07,13.6,7.81,5.11-1.14,8.91-5.78,8.97-10.46.1-7.44-9.24-13.96-16.25-11.11Z"/>
      <path class="cls-12" d="m1091.04,385.48c-.34,0-.69-.13-.95-.39-.52-.52-.52-1.37,0-1.89l53.25-53.25c.53-.52,1.37-.52,1.9,0,.52.52.52,1.37,0,1.89l-53.25,53.25c-.26.26-.61.39-.95.39Z"/>
      <path class="cls-12" d="m1105.52,351.42c-.34,0-.69-.13-.95-.39-.52-.52-.52-1.37,0-1.89l53.25-53.25c.53-.52,1.37-.52,1.9,0,.52.52.52,1.37,0,1.89l-53.25,53.25c-.26.26-.61.39-.95.39Z"/>
      <path class="cls-12" d="m1060.01,452.31c-.34,0-.69-.13-.95-.39-.52-.52-.52-1.37,0-1.89l53.25-53.25c.53-.52,1.37-.52,1.9,0,.52.52.52,1.37,0,1.89l-53.25,53.25c-.26.26-.61.39-.95.39Z"/>
      <path class="cls-12" d="m940.18,235.8c-.34,0-.69-.13-.95-.39-.52-.52-.52-1.37,0-1.89l53.25-53.25c.53-.52,1.37-.52,1.9,0,.52.52.52,1.37,0,1.89l-53.25,53.25c-.26.26-.6.39-.95.39Z"/>
      <path class="cls-4" d="m1276.5,489.69c-2.43,0-4.85-.92-6.71-2.78-3.7-3.71-3.7-9.71,0-13.42l86.36-86.36c3.7-3.7,9.71-3.7,13.42,0,3.7,3.71,3.7,9.71,0,13.42l-86.36,86.36c-1.85,1.85-4.28,2.78-6.71,2.78Z"/>
      <path class="cls-4" d="m1253.65,574.21c-2.43,0-4.85-.93-6.71-2.78-3.7-3.71-3.7-9.71,0-13.42l86.36-86.36c3.7-3.7,9.71-3.7,13.42,0,3.7,3.71,3.7,9.71,0,13.42l-86.36,86.36c-1.85,1.85-4.28,2.78-6.71,2.78Z"/>
    </g>
    <g>
      <path class="cls-4" d="m1095.77,1055.59c29.88-25.3,72.17-10.57,75.21-9.46,4.62,1.69,42.54,16.3,51.35,55.78.91,4.07,6.97,33.32-10.52,56.99-24.44,33.08-85.56,42.62-119.24,7.79-29.9-30.92-27.14-85.4,3.2-111.1Z"/>
      <path class="cls-4" d="m1011.69,962.96c3.45-5.53,9.58-15.36,8.66-27.95-1.96-26.57-34.45-52.14-67.88-54.5-36.98-2.61-66.32,23.76-74.01,41.18-5.26,11.93-6.19,22.3-6.19,22.3-.95,10.53-8.63,31.83-24.78,38.62-27.04,11.36-35.23,7.05-51.55,14.66-21.57,10.05-32.66,29.41-36.23,36.5-2.48,4.93-19.09,39.31-1.03,72.33,18.11,33.13,56.28,37.77,62.16,38.48,37.61,4.57,98.57,16.95,124.88-3.1,20.55-15.66-10.42-56.01,66-178.53Z"/>
      <path class="cls-9" d="m935.08,1303.42c-20.17-12.17-37.21-20.79-49.32-26.52-3.39-1.6-19.24-10.78-50.93-29.14-7.12-4.13-12.91-7.59-14.83-14.18-3.25-11.19,6.27-25.86,18.21-31.73,9.99-4.91,20.26-2.96,32.38.33,17.33,4.71,41.9,13.12,70.54,29-2.02,24.08-4.03,48.16-6.05,72.24Z"/>
      <path class="cls-9" d="m972.57,1394.67c-21.23-12.81-39.16-21.88-51.91-27.92-3.57-1.69-20.25-11.35-53.61-30.67-7.5-4.34-13.59-7.99-15.6-14.93-3.42-11.78,6.6-27.22,19.16-33.39,10.52-5.17,21.32-3.12,34.08.35,18.24,4.96,44.1,13.81,74.25,30.53-2.12,25.34-4.24,50.68-6.37,76.03Z"/>
      <path class="cls-9" d="m1172.89,1484.21c-6.41,60.31-131.82,77.44-131.82,77.44,0,0-30.88-8.52-63.74-37.84-39.75-35.46-58.22-77.31-58.22-77.31,0,0-56.67-27.11-63.36-57.11-1.71-7.67,3.97-16.27,8.24-24.41,1.89-3.6,11.08-18.98,58.65-20.23,53.15-1.39,95.01,16.43,108.42,22.39,46.85,20.82,147.33,65.2,141.82,117.06Z"/>
      <path class="cls-9" d="m919.85,1225.66c-20.18-12.17-37.21-20.79-49.32-26.52-3.39-1.6-19.24-10.78-50.93-29.14-7.13-4.13-12.91-7.59-14.83-14.18-3.25-11.19,6.27-25.86,18.21-31.73,9.99-4.91,20.26-2.96,32.38.33,17.33,4.71,41.9,13.12,70.54,29-2.02,24.08-4.03,48.16-6.05,72.24Z"/>
      <path class="cls-11" d="m907.55,1427.24l192.78,7.05c17.18.63,31.62-12.79,32.24-29.97l15.69-429.38c.63-17.18-12.79-31.62-29.97-32.24l-192.78-7.05c-17.18-.63-31.62,12.79-32.24,29.97l-15.69,429.38c-.63,17.18,12.79,31.62,29.97,32.24Z"/>
      <path class="cls-12" d="m1122.35,1396.04l15.12-413.6c.26-7.02-5.22-12.91-12.24-13.17l-208.55-7.62c-7.02-.26-12.92,5.22-13.17,12.24l-15.12,413.6c-.26,7.02,5.22,12.91,12.24,13.17l208.55,7.62c7.02.26,12.92-5.22,13.17-12.24Z"/>
      <path class="cls-9" d="m1059.49,1453.93c-2.82-107.6,60.9-171.96,60.9-171.96-18.68-50.45-7.77-98.53-3.28-111.39,1.93-5.54,10.18-29.15,31.49-35.66,6.28-1.92,11.95-1.81,15.86-1.39-1.35,8.75-2.61,21.74-1.25,37.34,1.26,14.52,4.22,24.79,9.58,42.98,5.22,17.71,10.24,31.33,17.65,51.3,11.71,31.59,13.26,32.92,15.05,43.07,1.95,11.06-2.04,17.23.59,45.46,5.51,59.3,3.82,85.8-7.73,125.26-2.92,3.18-21.14,38.12-73.7,27.6-25.41-5.08-64.36-22.49-65.15-52.61Z"/>
      <path class="cls-9" d="m855.73,1393.25c-2-9.99,2.37-40.76,19.47-46.49,24.59-.64,29.6,16.84,28.74,23.86-2.99,24.46-41.05,34.11-48.21,22.63Z"/>
      <path class="cls-9" d="m1198.69,1457.11c10.49,11.79,21.08,24.2,31.68,37.25,22.96,28.26,43.21,56.05,61.04,82.75-5.73,13.07-11.01,25.75-30.71,42.56-45.83,39.11-119.22,41.83-130.06,40.16-14.84-21.69-31.7-44.47-50.8-67.8-14.88-18.18-29.65-34.89-44.02-50.2,10.41-14.17,45.75-45.63,74.25-63.03,38.57-23.55,69.88-20.93,88.62-21.7Z"/>
      <path class="cls-9" d="m851.45,1321.16c-2.41-12.03-8.67-41.83,23.11-48.12,29.62-.77,35.65,20.29,34.62,28.74-3.6,29.46-49.11,33.21-57.73,19.38Z"/>
      <path class="cls-11" d="m1162.55,1510.01c-.51-.01-.99-.32-1.19-.83-.27-.68.06-1.44.74-1.71,7.81-3.09,19.09-9.23,28.47-20.93,5.82-7.28,10.04-15.57,12.54-24.65.19-.7.93-1.11,1.62-.92.7.19,1.11.92.92,1.62-2.59,9.43-6.97,18.04-13.02,25.6-9.73,12.16-21.44,18.53-29.55,21.73-.17.07-.34.09-.51.09Z"/>
      <path class="cls-11" d="m1041.04,1562.97c-.67-.02-1.24-.54-1.28-1.23-.05-.73.5-1.35,1.23-1.4,6.98-.46,13.93-1.38,20.64-2.75,7.4-1.5,14.65-3.57,21.55-6.16.67-.25,1.43.09,1.69.77.25.68-.09,1.44-.77,1.69-7.03,2.63-14.41,4.74-21.95,6.27-6.83,1.39-13.89,2.32-20.99,2.79-.04,0-.08,0-.12,0Z"/>
      <path class="cls-11" d="m1185.73,1509.41c-.32,0-.64-.13-.88-.37-.52-.51-.54-1.34-.03-1.86,14-14.53,19.28-27.53,18.24-44.86-.04-.73.51-1.35,1.24-1.39.66-.04,1.34.51,1.39,1.24,1.08,18.16-4.42,31.73-18.98,46.85-.26.28-.62.41-.98.4Z"/>
      <path class="cls-13" d="m1159.32,1134.34c-8.45,4.26-17.28,13.54-20.22,27.85-2.15,10.44,1.32,26.54,3.13,34.36,3.1,1.3,22.74,1.73,26.06,1.67-3.51-31.89,5.57-71.19-8.96-63.87Z"/>
      <path class="cls-11" d="m1137.99,1321.83c-.38-.01-.76-.18-1.01-.51-3.92-5.04-7.38-10.49-10.28-16.18-3.72-7.3-6.55-15.05-8.41-23.04-.17-.71.27-1.42.98-1.58.72-.17,1.42.28,1.58.98,1.81,7.79,4.57,15.34,8.19,22.45,2.82,5.54,6.19,10.84,10.01,15.75.45.57.34,1.4-.23,1.85-.25.2-.55.28-.84.28Z"/>
      <path class="cls-11" d="m1063.12,1477.47c-.58-.01-1.1-.41-1.25-.99-2.62-10.45-4.2-21.2-4.69-31.95-.39-8.71-.07-17.5.95-26.15.09-.72.75-1.24,1.46-1.15.72.09,1.24.74,1.15,1.46-1.01,8.5-1.32,17.16-.94,25.72.48,10.58,2.03,21.15,4.61,31.43.18.7-.25,1.42-.96,1.6-.11.03-.23.04-.35.04Z"/>
      <path class="cls-11" d="m1047.65,1465.13c-.72-.02-1.3-.61-1.28-1.34.15-7.68,1.27-15,3.31-21.76,1.66-5.48,3.96-10.66,6.83-15.4.38-.62,1.19-.82,1.81-.44.62.38.82,1.19.44,1.81-2.76,4.55-4.97,9.52-6.56,14.79-1.98,6.53-3.06,13.61-3.21,21.04-.02.73-.61,1.3-1.34,1.29t0,0Z"/>
      <path class="cls-13" d="m893.4,1355.17c3.38,1.98-6.94,25.75-20.03,27.44-3.1-1.13-6.19-2.26-9.29-3.39.36-16.37,11.11-28.14,11.11-28.14,0,0,9.77-.84,18.2,4.09Z"/>
      <path class="cls-13" d="m889.12,1280.54c3.78,1.94-4.87,32.98-18.61,37.05-3.4-.93-6.8-1.86-10.2-2.79-1.21-20.35,9.07-36.58,9.07-36.58,0,0,10.3-2.53,19.74,2.31Z"/>
      <path class="cls-11" d="m869.62,1331.39c-2.51-.06-5.03-.27-7.51-.62-.72-.1-1.22-.77-1.12-1.49.1-.72.79-1.19,1.49-1.12,3.98.57,8.04.74,12.05.51,2.95-.17,5.9-.56,8.78-1.15.73-.15,1.41.31,1.56,1.02.15.71-.31,1.41-1.02,1.55-3.01.62-6.09,1.02-9.16,1.2-1.69.09-3.38.12-5.07.08Z"/>
      <path class="cls-11" d="m870.85,1398.95c-2.51-.06-5.03-.27-7.51-.62-.72-.1-1.22-.77-1.12-1.49.1-.72.8-1.19,1.49-1.12,3.98.57,8.04.74,12.05.51,2.95-.17,5.9-.56,8.78-1.15.72-.15,1.41.31,1.56,1.02.15.71-.31,1.41-1.02,1.55-3.01.62-6.09,1.02-9.16,1.2-1.69.09-3.38.12-5.07.08Z"/>
      <path class="cls-11" d="m922.39,1441.56c-.22,0-.45-.07-.66-.19-.62-.38-.81-1.19-.44-1.81,1.64-2.68,3.44-5.29,5.35-7.76,5.46-7.06,12.01-13.28,19.48-18.48.59-.41,1.42-.27,1.83.33.42.6.27,1.42-.33,1.83-7.25,5.05-13.61,11.08-18.9,17.93-1.85,2.4-3.6,4.93-5.19,7.53-.25.42-.7.64-1.15.63Z"/>
      <path class="cls-10" d="m1068.93,1013.68l-75.92-2.39c-9.57-.3-17.09-8.31-16.79-17.88h0c.3-9.57,8.31-17.09,17.88-16.79l75.92,2.39c9.57.3,17.09,8.31,16.79,17.88h0c-.3,9.57-8.31,17.09-17.88,16.79Z"/>
      <path class="cls-10" d="m1111.87,1015.04h0c-9.57-.3-17.09-8.31-16.79-17.88h0c.3-9.57,8.31-17.09,17.88-16.79h0c9.57.3,17.09,8.31,16.79,17.88h0c-.3,9.57-8.31,17.09-17.88,16.79Z"/>
      <path class="cls-10" d="m943.56,1023c-20.68-14.52-51.56-13.09-70.74,6.83-18.76,19.49-19.4,49.5-5.27,69.36,18.84,26.48,61.4,31.37,84.76,7.09,22.72-23.61,17.63-64.77-8.75-83.29Z"/>
      <path class="cls-11" d="m917.06,984.52c.9-3.58,2.97-5.94,3.83-6.9,5.17-5.75,14.48-8.29,22.55-5.18,8.68,3.35,11.74,11.64,12.2,12.96,2.06-.68,5.14-1.42,8.85-1.27,2.47.1,14.68.97,19.96,11.12,5.01,9.62-.38,19.58-.83,20.39,1.18.71,3.08,2.05,4.68,4.33.68.97,4.48,6.67,2.1,12.73-1.11,2.83-3.13,4.61-4.54,5.59,2.13,1.33,5.45,3.8,8.09,7.91,1.03,1.6,7.69,12.38,2.43,22.3-4.46,8.41-14.18,9.99-15.12,10.13-11.91,1.75-23.96-7.51-28.06-18.84-4.27-11.81,1.29-22.53,2.4-24.58-9.94-7-17.08-13.94-21.81-19.07-9.3-10.09-19.4-21.05-16.74-31.63Z"/>
      <path class="cls-11" d="m920.59,982.76c-1.95-.77-7.33-2.8-13.94-1.42-7.12,1.48-16.09,7.02-17.27,15.78-.6,4.43,1,8.13,1.98,9.97-2.27,1.36-6.03,4.02-9.02,8.62-1.09,1.67-7.91,12.15-3.09,22.72,3.21,7.06,9.74,10.06,11.88,10.94-1.52.13-9.19.96-14.14,7.4-5.34,6.94-5.06,17.25.55,24.28,4.92,6.17,13.3,8.99,21.17,6.73,7.61-2.18,13.26-8.7,14.35-16.58.4,1.27,1.97,5.72,6.08,7.49,5.88,2.53,12.59-2.31,15.58-6.26,4.28-5.65,4.38-13.98.49-21.31-.85-11.05-1.7-22.1-2.55-33.15,4.31-4.16,5.4-8.14,5.75-10.16,1.84-10.79-8.15-21.24-17.81-25.04Z"/>
      <path class="cls-13" d="m881.02,1116.05c4.56-7.9,13.83-21.29,30.37-31.17,6.95-4.15,13.6-6.73,19.19-8.38,3.61-.14,7.94.05,12.72,1.03,12.59,2.58,21.31,9.18,25.8,13.21-1.49,13.09-6.85,20.36-9.98,23.79-15.3,16.75-47.37,18.48-78.1,1.52Z"/>
      <path class="cls-17" d="m932.07,1059.5c-.46,2.87-1.07,5.93-1.86,9.15-1.11,4.51-2.42,8.59-3.77,12.23,2.55.88,6.26,1.83,10.8,1.9,3.38.06,6.27-.39,8.48-.91.84-2.27,1.65-4.96,2.21-8.04.99-5.44.88-10.2.5-13.78-5.45-.19-10.9-.37-16.35-.56Z"/>
      <path class="cls-8" d="m940.04,1059.77c-1.87.52-3.78,1.41-5.59,2.85.66,1.44,2.1,4.09,5,6.24,3.12,2.32,6.42,2.97,8.72,3.1.64-4.52.58-8.5.26-11.61-.23-.12-.47-.22-.72-.32-2.56-.09-5.12-.17-7.68-.26Z"/>
      <path class="cls-17" d="m967.44,1007c2.09,2.73,3.21,5.86,3.95,19.94.81,15.44,1.21,23.15-.61,26.46-5.98,10.86-22.84,15.71-36.3,11.67-10.08-3.03-15.83-10.33-18.07-13.65-8.81-13.1-10.13-34.65,2.53-46.27,11-10.1,26.78-7.38,31.04-6.64,4.8.83,12.62,2.18,17.45,8.49Z"/>
      <path class="cls-17" d="m912.34,1021.91c-.11-.26-2.77-6.5-7.95-6.06-3.91.33-7.01,4.25-6.81,8.3.2,4.04,3.6,6.82,6.81,7.51,2.24.48,5.9.27,7.78-2.4,2.01-2.85.54-6.44.17-7.35Z"/>
      <path class="cls-11" d="m948.8,1046.23c-1.37-.03-2.82-.18-4.37-.46-7.41-1.38-12.14-5.82-14.3-8.35-.47-.55-.41-1.38.14-1.85.55-.47,1.38-.41,1.85.14,1.94,2.26,6.17,6.24,12.79,7.47,6.93,1.29,11.73-.59,14.55-2.4,1.9-1.22,3.55-2.8,4.91-4.69.43-.59,1.25-.73,1.84-.3.59.42.73,1.24.3,1.84-1.55,2.16-3.44,3.97-5.62,5.37-2.57,1.65-6.59,3.36-12.08,3.24Z"/>
      <path class="cls-11" d="m930.74,1021.22c.11,2.42,1.63,5.15,3.07,5.11,1.63-.04,2.72-3.64,3.04-5.5.45-2.55.28-6.51-1.17-6.92-1.62-.47-5.12,3.38-4.94,7.31Z"/>
      <path class="cls-11" d="m960.24,1022.82c.54,2.17,2.41,4.37,3.7,4.07,1.47-.33,1.8-3.79,1.76-5.54-.06-2.39-.92-5.94-2.31-6.06-1.55-.13-4.03,3.99-3.15,7.52Z"/>
      <path class="cls-15" d="m950.62,1036.05c-.42-.01-.82-.22-1.07-.59-.4-.61-.23-1.42.38-1.82,1.35-.88,2.96-2.23,3.01-3.63.02-.74-.38-1.3-1.14-2.3-.71-.93-1.59-2.08-2.14-3.76-.72-2.19-.67-4.63.14-7.23.22-.69.94-1.08,1.65-.87.69.22,1.08.95.87,1.65-.65,2.07-.7,3.97-.16,5.63.41,1.26,1.08,2.14,1.73,2.99.85,1.12,1.73,2.27,1.68,3.97-.06,2.03-1.47,3.97-4.19,5.76-.23.15-.49.22-.75.21Z"/>
      <path class="cls-11" d="m941.4,1012.5c-.28,0-.56-.1-.79-.29-1.07-.85-2.81-1.93-5.08-2.24-2.47-.34-4.49.36-5.78,1.01-.65.32-1.44.07-1.77-.58-.33-.65-.06-1.44.58-1.77,2.32-1.17,4.85-1.6,7.32-1.26,2.27.31,4.47,1.28,6.37,2.8.57.45.66,1.28.2,1.85-.27.33-.66.5-1.06.49Z"/>
      <path class="cls-11" d="m956.81,1013.52c-.36,0-.71-.16-.96-.45-.47-.55-.42-1.38.13-1.86,1.18-1.03,3.12-2.31,5.62-2.59,2.17-.25,4.36.32,6.32,1.62.6.4.77,1.22.37,1.82-.41.61-1.22.77-1.82.37-1-.67-2.61-1.43-4.57-1.2-1.83.2-3.29,1.18-4.19,1.96-.26.22-.58.33-.9.32Z"/>
      <path class="cls-8" d="m909.79,1026.9c.99-1.82.81-4.02-.44-5.49-1.11-1.31-3.25-2.3-5.12-1.35-1.93.98-2.53,3.48-1.87,5.09.87,2.12,4.22,3.38,7.44,1.76Z"/>
      <path class="cls-8" d="m920.8,1033.32c6.54,2.87,13.2-4.58,8.66-10.1-.02-.03-.04-.05-.07-.08-1.96-2.31-5.74-4.06-9.04-2.39-3.4,1.72-4.47,6.15-3.31,8.99.63,1.53,1.98,2.81,3.75,3.58Z"/>
      <path class="cls-8" d="m971.39,1026.94c-.11-2.08-.23-3.89-.35-5.53-.42.11-.84.26-1.26.47-3.4,1.72-4.47,6.15-3.31,8.99.63,1.53,1.98,2.81,3.75,3.58.53.23,1.05.37,1.57.48-.11-2.4-.25-5.05-.41-7.99Z"/>
      <path class="cls-10" d="m1094.41,1153.85l-75.93-1.74c-9.57-.22-17.16-8.16-16.94-17.73l.94-40.77c.22-9.57,8.16-17.16,17.73-16.94l75.93,1.74c9.57.22,17.16,8.16,16.94,17.73l-.94,40.77c-.22,9.58-8.16,17.16-17.73,16.94Z"/>
      <path class="cls-10" d="m1015.58,1097.61c-4.54-2.63-9.78,2.07-18.43.45-5.96-1.12-10.31-4.63-12.99-7.31.22,2.6,1.29,11.25,8.35,18.17,10.96,10.73,26.3,7.48,27.46,7.21,1-12.7-1.72-16.97-4.4-18.52Z"/>
      <g>
        <path class="cls-12" d="m1097.14,1099.56l-80.21-1.84c-.73-.02-1.3-.62-1.29-1.34.02-.73.62-1.3,1.34-1.29l80.21,1.84c.73.02,1.3.62,1.29,1.35-.02.73-.62,1.3-1.34,1.28Z"/>
        <path class="cls-12" d="m1096.73,1117.47l-80.21-1.84c-.73-.02-1.3-.62-1.29-1.34s.62-1.3,1.34-1.29l80.21,1.84c.73.02,1.3.62,1.28,1.35-.02.73-.62,1.3-1.35,1.28Z"/>
        <path class="cls-12" d="m1050.62,1134.34l-34.52-.79c-.73-.02-1.3-.62-1.29-1.34s.62-1.3,1.34-1.29l34.52.79c.73.02,1.3.62,1.29,1.34-.02.73-.62,1.3-1.34,1.29Z"/>
      </g>
      <path class="cls-13" d="m941.07,1189.16l118.37,2.71c9.57.22,17.16,8.16,16.94,17.73l-1.6,69.72c-.22,9.57-8.16,17.16-17.73,16.94l-118.37-2.71c-9.57-.22-17.16-8.16-16.94-17.73l1.6-69.72c.22-9.57,8.16-17.16,17.73-16.94Z"/>
      <path class="cls-13" d="m1051.93,1285.54c4.63,3.88,1.6,11.42,6.76,20.16,3.55,6.02,9.07,9.36,13.04,11.21-2.91.79-12.7,3.03-22.99-1.91-15.95-7.66-18.45-25.57-18.62-26.94,13.38-6.08,19.08-4.81,21.81-2.52Z"/>
      <g>
        <path class="cls-12" d="m1037.29,1269.71l-93.41-2.14c-.73-.02-1.3-.62-1.29-1.34.02-.73.62-1.3,1.34-1.29l93.41,2.14c.73.02,1.3.62,1.29,1.34-.02.73-.62,1.3-1.34,1.29Z"/>
        <path class="cls-12" d="m1055.43,1245.32l-110.98-2.54c-.73-.02-1.3-.62-1.29-1.34.02-.73.62-1.3,1.34-1.29l110.98,2.54c.73.02,1.3.62,1.29,1.35-.02.73-.62,1.3-1.34,1.28Z"/>
        <path class="cls-12" d="m1056,1220.53l-110.99-2.55c-.73-.02-1.3-.62-1.29-1.34.02-.73.62-1.3,1.34-1.29l110.99,2.55c.73.02,1.3.62,1.29,1.34s-.62,1.3-1.34,1.29Z"/>
      </g>
      <path class="cls-10" d="m1011.69,1374.9l-75.93-1.74c-9.57-.22-17.16-8.16-16.94-17.73l.52-22.55c.22-9.57,8.16-17.16,17.73-16.94l75.93,1.74c9.57.22,17.16,8.16,16.94,17.73l-.52,22.56c-.22,9.57-8.16,17.16-17.73,16.94Z"/>
      <path class="cls-10" d="m932.44,1336.87c-4.54-2.63-9.78,2.07-18.43.45-5.96-1.12-10.31-4.63-12.99-7.31.22,2.6,1.29,11.25,8.35,18.17,10.96,10.73,26.3,7.48,27.46,7.21,1-12.7-1.72-16.97-4.4-18.52Z"/>
      <g>
        <path class="cls-12" d="m1014,1338.82l-80.21-1.84c-.73-.02-1.3-.62-1.29-1.35.02-.73.62-1.3,1.34-1.28l80.21,1.84c.73.02,1.3.62,1.29,1.34-.01.73-.62,1.3-1.34,1.29Z"/>
        <path class="cls-12" d="m1013.59,1356.74l-80.21-1.84c-.73-.02-1.3-.62-1.29-1.34.02-.73.62-1.3,1.34-1.29l80.21,1.84c.73.02,1.3.62,1.29,1.34-.01.73-.62,1.3-1.34,1.29Z"/>
      </g>
      <path class="cls-4" d="m844.4,1473.26c2.33.27,11.26,1.03,19.54-4.72,10.1-7,16.55-21.78,11.01-34.37-6.51-14.8-26.46-19.53-40.21-12.36-10.64,5.55-18.69,18.82-15.05,31.9,3.34,12.01,15.02,18.41,24.71,19.54Z"/>
      <path class="cls-4" d="m763.86,1398.59c2.65,3.01,13.16,14.17,30.28,16.33,20.86,2.63,45.96-8.83,53.3-31.19,8.62-26.28-11.39-55.11-37.09-61.69-19.89-5.09-45.31,2.61-55.63,23.42-9.48,19.12-1.91,40.61,9.13,53.13Z"/>
      <path class="cls-10" d="m785.5,1448.4c.54.61,2.66,2.86,6.12,3.3,4.21.53,9.28-1.78,10.76-6.3,1.74-5.31-2.3-11.13-7.49-12.46-4.02-1.03-9.15.53-11.23,4.73-1.91,3.86-.39,8.2,1.84,10.73Z"/>
      <path class="cls-4" d="m803.11,1515.93c1.64.19,7.95.72,13.8-3.33,7.13-4.94,11.68-15.38,7.77-24.27-4.59-10.45-18.68-13.79-28.39-8.73-7.51,3.92-13.2,13.29-10.63,22.52,2.36,8.48,10.61,13,17.45,13.8Z"/>
      <path class="cls-13" d="m1244.31,1429.18l-45.05-1.03c-17.06-.39-30.56-14.53-30.17-31.59l.93-40.33c.39-17.06,14.53-30.56,31.59-30.17l45.05,1.03c17.06.39,30.56,14.53,30.17,31.59l-.92,40.33c-.39,17.05-14.53,30.56-31.59,30.17Z"/>
      <path class="cls-13" d="m1193.39,1363.42c-8.09-4.69-17.44,3.7-32.88.81-10.63-1.99-18.39-8.25-23.17-13.05.39,4.65,2.29,20.07,14.9,32.42,19.55,19.14,46.91,13.34,48.99,12.86,1.78-22.65-3.07-30.27-7.85-33.04Z"/>
      <path class="cls-12" d="m1221.83,1367.27c-6.55-13.51-14.29-21.22-19.61-19.85-3.93,1.01-5.63,6.76-6.11,8.41-2.92,9.89,2.59,19.62,11.06,34.13,2.51,4.29,6.38,10.52,11.76,17.7,6.98-5.66,12.19-11.03,15.81-15.1,8.91-10.02,15.38-17.5,16.44-28.24.14-1.43,1.21-13.41-3.91-15.88-7.85-3.79-24.46,17.56-25.43,18.82Z"/>
      <path class="cls-10" d="m1207.08,1275.63c.54.61,2.66,2.86,6.11,3.3,4.21.53,9.28-1.78,10.76-6.3,1.74-5.31-2.3-11.13-7.49-12.46-4.02-1.03-9.15.53-11.23,4.73-1.92,3.86-.39,8.2,1.84,10.73Z"/>
      <path class="cls-10" d="m1241.8,1315.67c1.64.19,7.95.72,13.8-3.33,7.13-4.94,11.68-15.38,7.77-24.27-4.59-10.45-18.69-13.79-28.39-8.72-7.51,3.92-13.2,13.29-10.63,22.52,2.36,8.48,10.61,13,17.45,13.8Z"/>
    </g>
    <g>
      <path class="cls-10" d="m171.35,1217.3c-3.01-2.11-58.31-39.52-113.76-11.38-43.35,22-53.74,67.28-55.2,74.16-9.28,43.74,9.22,90.25,43.85,115.03,52.01,37.21,138.32,23.93,168.32-34.73,25.79-50.43-.79-113.34-43.21-143.08Z"/>
      <path class="cls-14" d="m123.63,1206.77c-4.09-23.2-8.8-41.7-12.45-54.6-1.02-3.61-4.53-21.58-11.54-57.53-1.58-8.08-2.77-14.72.94-20.49,6.3-9.81,23.6-12.28,35.88-7.14,10.27,4.3,15.55,13.31,21.04,24.61,7.85,16.16,17.66,40.2,24.53,72.22-19.47,14.31-38.93,28.63-58.4,42.94Z"/>
      <path class="cls-14" d="m110.26,1318.26c-6.17-24.02-12.6-43.05-17.48-56.29-1.36-3.7-6.49-22.28-16.75-59.44-2.31-8.35-4.1-15.22-.67-21.58,5.81-10.81,23.78-14.8,37.07-10.4,11.12,3.68,17.4,12.72,24.07,24.13,9.54,16.32,21.78,40.75,31.58,73.81-19.27,16.59-38.54,33.18-57.82,49.78Z"/>
      <path class="cls-14" d="m177.98,1262.69c-33.19,4.86-44.08,15.66-46.9,18.65-14.23,15.13-8.25,35.32-13.11,62.02-16.59,91.21,13.74,147.27,13.74,147.27,0,0,52.14,31.75,66.08,33.99,8.55,1.37,82.42,12.06,126.47-38.31,27.89-31.89,27.27-69.32,26.96-88.04-.32-19.14-1.28-77.76-50.28-114.44-43.76-32.76-95.36-25.2-122.97-21.15Z"/>
      <path class="cls-14" d="m430.11,1341.66c-12.31,19.93-57.43,178.71-101.26,184.26-18.44,2.33-54.49-9.73-72.05-24.05-21.45-17.49-11.11-58.14-7.93-70.66,10.06-39.59,37.77-63.91,55.27-79.26,21.82-19.15,43.12-30.48,57.48-36.95,8.44-28.57,74.73,16.57,68.49,26.66Z"/>
      <path class="cls-14" d="m143.84,1477.55c1.62,21.97,26.3,116.78,26.84,135.05,3.57,7.26,10.11,18.41,21.51,28.59,43.65,39.03,108.62,19.36,112.78,18.03,10.65-3.4,28.39-10.65,46.77-26.95-5.86-23.02-11.16-48.48-15.19-76.18-5.87-40.38-7.82-77.31-7.69-109.65-26.02,3.2-55.65,8.48-87.78,17.14-28.83,7.77-74.98,4.8-97.23,13.97Z"/>
      <path class="cls-11" d="m294.81,1444.02l-189.48-36.21c-16.89-3.23-27.96-19.53-24.73-36.42l80.66-422.02c3.23-16.89,19.53-27.96,36.42-24.73l189.48,36.21c16.89,3.23,27.96,19.53,24.73,36.42l-80.66,422.02c-3.23,16.89-19.53,27.96-36.42,24.73Z"/>
      <path class="cls-12" d="m92.42,1365.61l77.7-406.52c1.32-6.9,7.98-11.42,14.88-10.1l204.98,39.18c6.9,1.32,11.42,7.98,10.1,14.88l-77.7,406.52c-1.32,6.9-7.98,11.42-14.88,10.1l-204.98-39.18c-6.9-1.32-11.42-7.98-10.1-14.87Z"/>
      <path class="cls-14" d="m379.65,1334.6c-18.65-16.41-30.36-44.24-27.13-72.39,4.99-43.44,43.88-74.13,52.92-70.02,6.04,2.75,1.88,15.92,5.89,47.83,1.72,13.7,3.39,16.19,10.46,47.7,7.78,34.71,14.89,40.24,10.52,49.99-.87,1.95-4.17,8.61-11.1,11.73-16.32,7.35-37.91-11.65-41.55-14.85Z"/>
      <path class="cls-11" d="m406.3,1349.64c-.07,0-.14,0-.21-.02-5.51-.99-40.13-16.65-47.95-42.8-.21-.7.19-1.43.88-1.64.7-.21,1.43.19,1.64.88,7.36,24.59,40.83,40.05,45.9,40.96.72.13,1.19.81,1.06,1.53-.12.65-.69,1.1-1.32,1.08Z"/>
      <path class="cls-11" d="m378.73,1351.71c-.28,0-.57-.1-.81-.3-4.5-3.72-8.26-8.16-11.18-13.21-3.9-6.74-4.81-15.67-4.01-21.11.11-.72.78-1.23,1.49-1.11.72.1,1.22.77,1.11,1.49-.74,5.01.1,13.21,3.68,19.41,2.77,4.78,6.33,8.98,10.58,12.5.56.46.64,1.29.18,1.85-.27.32-.66.48-1.04.48Z"/>
      <g>
        <path class="cls-14" d="m243.49,1480.98c3.71-7.86,11.57-20.55,28.87-32.88,28.46-20.29,64.06-26.5,77.48-28.39,1.08,7.05.74,17.6-7.71,28.35-16.06,20.43-54.63,33-98.64,32.92Z"/>
        <path class="cls-11" d="m243.46,1482.3c-.18,0-.36-.04-.53-.12-.66-.31-.94-1.09-.63-1.75,5.9-12.5,15.75-23.74,29.29-33.39,26.78-19.09,60.4-26.13,78.07-28.63.7-.08,1.39.4,1.49,1.12s-.4,1.38-1.12,1.48c-17.42,2.46-50.58,9.4-76.9,28.16-13.17,9.39-22.74,20.28-28.44,32.37-.23.49-.71.76-1.22.75Z"/>
      </g>
      <path class="cls-11" d="m200.51,1519.71c-.09,0-.19-.02-.28-.04-12.38-3.05-37.2-11.72-53.11-18.57-.67-.29-.98-1.06-.69-1.73.29-.67,1.06-.97,1.73-.69,15.81,6.8,40.43,15.42,52.7,18.44.71.17,1.14.89.96,1.59-.15.61-.7,1.01-1.31,1Z"/>
      <path class="cls-11" d="m288.29,1530.73c-.71-.02-1.29-.6-1.29-1.32,0-.73.59-1.31,1.32-1.31,8.19.01,16.47-.52,24.61-1.57,8.07-1.04,16.16-2.62,24.03-4.69.7-.19,1.42.23,1.6.94.19.7-.23,1.42-.94,1.6-7.98,2.1-16.17,3.69-24.36,4.75-8.26,1.07-16.65,1.6-24.95,1.59h-.03Z"/>
      <path class="cls-8" d="m402.14,1193.59c-8.65,4.51-17.28,13.94-19.03,28.07-.47,3.81.24,17.4,2.91,24.98,3.44,1.15,24.52.77,28.06.57-6.77-31.06,2.93-61.37-11.95-53.62Z"/>
      <path class="cls-11" d="m176.77,1525.9c-.22,0-.44-.06-.64-.18-7.05-4.19-13.66-9.12-19.64-14.66-3.48-3.21-6.8-6.69-9.87-10.33-.47-.56-.4-1.38.16-1.85.55-.47,1.39-.4,1.85.16,3,3.55,6.24,6.95,9.64,10.09,5.84,5.41,12.3,10.23,19.2,14.33.62.37.83,1.18.46,1.8-.25.42-.7.65-1.16.64Z"/>
      <path class="cls-14" d="m75.36,1180.94c6.71-10.27,23.13-35.92,50.21-18.14,21.67,20.21,11.22,39.45,4.56,44.76-23.21,18.5-58.31-10.72-54.77-26.63Z"/>
      <path class="cls-8" d="m126.69,1176.05c1.61,3.19-19.65,19.96-30.99,15.92-1.85-2.31-3.69-4.63-5.54-6.95,9.26-14.41,24.28-20.32,24.28-20.32,0,0,8.24,3.39,12.25,11.35Z"/>
      <path class="cls-11" d="m112.03,1216.14h-.02c-15.74-.61-28.8-10.88-31.87-20.03-.23-.69.14-1.44.83-1.67.69-.23,1.44.14,1.67.83,2.8,8.36,15.31,17.68,29.47,18.24.73.03,1.29.64,1.26,1.36-.03.72-.63,1.28-1.35,1.26Z"/>
      <path class="cls-4" d="m169.73,1134.92c-4.83,13.04-24.23,71.62,3.92,115.87,18.25,28.69,52.86,45.65,84.6,40.04,48.93-8.64,72.21-67.58,82.4-93.37,32.92-83.36,18.35-187.56-30.84-261.58-4.61-6.93-63.91-86.2-143.83-67.52-32.31,7.55-69.99,62.48-30.62,101.72,21.08,21.01,24.27,6.99,45.08,41.98,16.81,28.25-2.27,100.05-10.71,122.86Z"/>
      <path class="cls-13" d="m148.1,1198.63c12.09-1.41,26.05-1.59,41.2.94,64.34,10.76,101.75,62.35,112.23,78-3.9,9.88-10.42,20.97-21.7,28.45-35.14,23.28-100.82,1.1-124.41-44.08-12.91-24.72-10-50.16-7.32-63.32Z"/>
      <path class="cls-13" d="m301.55,1266c16.51-17.44,27.44-40.25,34.5-57.15-15.24-5.7-45.7-14.27-81.71-5.81-6.66,1.56-12.76,3.55-18.34,5.74,32.9,16.66,54.75,42.45,65.54,57.22Z"/>
      <path class="cls-10" d="m229.2,980.12c-8.78-1.19-18.36,3.6-22.64,11.98-5.48,10.73-1.29,25.4,10.47,31.16,12.08,5.92,26.54-.32,31.17-11.13,5.73-13.35-5.08-30.13-19-32.01Z"/>
      <path class="cls-10" d="m233.09,1376.93l-96.11-18.24c-9.41-1.79-15.59-10.86-13.8-20.27h0c1.79-9.41,10.86-15.59,20.27-13.8l96.11,18.24c9.41,1.79,15.59,10.86,13.8,20.27h0c-1.79,9.41-10.86,15.59-20.27,13.8Z"/>
      <path class="cls-10" d="m283.65,1386.52l-6.74-1.28c-9.41-1.79-15.59-10.86-13.8-20.27h0c1.79-9.41,10.86-15.59,20.27-13.8l6.74,1.28c9.41,1.79,15.59,10.86,13.8,20.27h0c-1.79,9.41-10.86,15.59-20.27,13.8Z"/>
      <path class="cls-10" d="m426.19,1101.19c.36-2.87.4-5.82,0-8.83-.76-5.81-2.92-10.85-5.93-15.17,1.62-4.06,2.33-8.52,1.73-13.16-1.91-14.62-15.64-22.78-26.56-24.58-.04-.5-.06-.99-.12-1.5-2.28-17.48-18.82-27.19-31.83-29.22-2.53-.4-21.17-2.99-32.88,10.81-2.97,3.5-5.01,7.51-6.22,11.72-1.78-.94-3.65-1.56-5.38-1.82-1.01-.15-8.4-1.15-13.05,4.25-2.35,2.73-3.24,6.23-2.95,9.6-5.46.16-13.55,1.69-19.39,8.59-5.13,6.05-6.69,14.06-5.31,21.46l147.9,27.86Z"/>
      <path class="cls-10" d="m117.89,1107.42c.54-1.98,1.31-3.92,2.38-5.79,2.06-3.6,4.84-6.32,7.98-8.34.03-3.09.77-6.21,2.41-9.08,5.19-9.06,16.38-10.7,24.02-8.94.16-.31.3-.64.48-.95,6.21-10.84,19.65-12.73,28.72-10.56,1.77.42,14.67,3.74,18.62,15.94,1,3.09,1.26,6.27.92,9.35,1.42-.14,2.81-.04,4.01.25.7.17,5.81,1.51,7.4,6.3.81,2.42.45,4.95-.66,7.08,3.53,1.57,8.42,4.76,10.39,10.85,1.73,5.35.59,11.02-2.3,15.49l-104.37-21.61Z"/>
      <path class="cls-13" d="m263.91,945.11l73.75-24.79c16.17-5.44,24.87-22.95,19.44-39.12l-22.82-67.9c-5.43-16.17-22.95-24.87-39.12-19.44l-73.75,24.79c-16.17,5.43-24.87,22.95-19.44,39.12l22.82,67.9c5.44,16.17,22.95,24.87,39.12,19.44Z"/>
      <path class="cls-13" d="m241.29,909.91c-1.19,10.48-15.06,13.32-22.81,29.24-5.34,10.97-4.87,22.2-3.74,29.75-3.95-3.48-16.64-15.55-19.36-35.27-4.21-30.57,19.42-51.45,21.25-53.02,21.72,13.6,25.36,23.11,24.66,29.29Z"/>
      <path class="cls-12" d="m277.93,861.29c1.8-11.9,5.89-19.65,10.29-19.86,3.25-.16,5.91,3.84,6.68,4.98,4.58,6.88,2.69,15.64-.34,28.75-.9,3.88-2.38,9.56-4.79,16.35-6.69-2.68-11.95-5.54-15.69-7.8-9.2-5.55-15.94-9.74-19.3-17.7-.45-1.06-4.11-9.97-.78-13.08,5.1-4.76,22.89,7.62,23.94,8.36Z"/>
      <path class="cls-10" d="m53.15,1022.57c.32-1.18.78-2.34,1.42-3.46,1.23-2.15,2.89-3.78,4.77-4.98.02-1.85.46-3.71,1.44-5.43,3.1-5.42,9.79-6.4,14.36-5.34.1-.19.18-.38.29-.57,3.71-6.48,11.75-7.61,17.17-6.31,1.06.25,8.77,2.24,11.13,9.53.6,1.85.75,3.74.55,5.59.85-.08,1.68-.02,2.4.15.42.1,3.47.9,4.42,3.77.48,1.45.27,2.96-.39,4.23,2.11.94,5.03,2.84,6.21,6.48,1.03,3.19.35,6.58-1.38,9.26l-62.39-12.92Z"/>
      <path class="cls-12" d="m226.64,1060.84s-.05,0-.08,0c-2.06-.09-3.65-1.83-3.57-3.89l.81-19.04c.09-2.06,1.85-3.53,3.89-3.56,2.06.09,3.65,1.83,3.57,3.89l-.81,19.04c-.09,2.03-1.78,3.61-3.81,3.57Z"/>
      <path class="cls-12" d="m257.79,1052.19c-1.23-.03-2.43-.67-3.11-1.81l-9.8-16.34c-1.06-1.77-.49-4.06,1.28-5.11,1.77-1.06,4.06-.49,5.11,1.28l9.8,16.34c1.06,1.77.49,4.06-1.28,5.11-.63.38-1.32.55-2,.53Z"/>
      <path class="cls-12" d="m279.56,1023.54c-.3,0-.61-.05-.91-.13l-18.37-5.06c-1.99-.55-3.15-2.6-2.61-4.58.55-1.98,2.61-3.14,4.58-2.6l18.37,5.06c1.99.55,3.15,2.6,2.61,4.58-.46,1.68-2.01,2.78-3.68,2.74Z"/>
      <path class="cls-12" d="m223.52,1199.26c-1.07-.02-2.12-.5-2.83-1.4-1.28-1.61-1.02-3.96.59-5.24,5.61-4.47,11.72-8.19,18.15-11.06,27.68-12.35,55.36-6.35,69.39-1.67,1.95.65,3.01,2.76,2.36,4.71-.65,1.95-2.76,3.01-4.71,2.36-13.01-4.33-38.61-9.92-64,1.41-5.86,2.61-11.42,6-16.54,10.08-.71.57-1.57.83-2.41.81Z"/>
      <path class="cls-12" d="m205.28,1190.95c-.69-.02-1.38-.22-2-.64-1.71-1.15-2.16-3.47-1-5.18,11.74-17.4,32.61-27.06,57.25-26.5,2.06.05,3.69,1.75,3.64,3.81-.05,2.06-1.75,3.69-3.81,3.64-22.05-.51-40.6,7.95-50.9,23.21-.74,1.09-1.95,1.67-3.18,1.64Z"/>
      <path class="cls-4" d="m356.78,1545.7c-.86-.02-1.72-.33-2.41-.96-1.53-1.38-1.65-3.73-.27-5.27,11.93-13.24,22.75-27.57,32.17-42.59,19.04-30.38,32.64-63.89,40.42-99.62.44-2.02,2.45-3.28,4.44-2.85,2.01.44,3.29,2.42,2.85,4.44-7.96,36.57-21.88,70.89-41.39,101.99-9.65,15.39-20.74,30.07-32.95,43.63-.76.84-1.81,1.25-2.86,1.23Z"/>
      <path class="cls-4" d="m365.82,1572.22c-.78-.02-1.55-.27-2.21-.79-1.62-1.27-1.91-3.61-.64-5.23,7.68-9.81,15.26-19.92,22.53-30.06,8.06-11.23,15.96-22.81,23.5-34.4,1.12-1.73,3.43-2.21,5.16-1.09,1.73,1.12,2.22,3.43,1.09,5.16-7.59,11.69-15.57,23.35-23.69,34.68-7.33,10.22-14.97,20.41-22.71,30.31-.75.96-1.89,1.45-3.02,1.43Z"/>
      <path class="cls-4" d="m90.65,1141.4c-1.36-.03-2.66-.81-3.29-2.13-8.19-17.26-13.5-35.47-15.78-54.12-1.13-9.19-1.51-18.54-1.16-27.81.08-2.04,1.78-3.63,3.81-3.58.02,0,.04,0,.06,0,2.06.08,3.66,1.81,3.58,3.87-.34,8.87.03,17.82,1.11,26.62,2.19,17.86,7.27,35.3,15.12,51.83.88,1.86.09,4.08-1.77,4.97-.54.26-1.12.37-1.68.36Z"/>
      <path class="cls-13" d="m87.1,1455.16c1.47-12.33,5.44-20.46,9.97-20.83,3.35-.27,6.23,3.77,7.05,4.93,4.95,6.95,3.28,16.05.58,29.68-.8,4.03-2.14,9.95-4.42,17.02-6.99-2.54-12.51-5.33-16.44-7.53-9.67-5.43-16.76-9.53-20.48-17.64-.5-1.08-4.57-10.16-1.23-13.47,5.11-5.08,23.87,7.12,24.97,7.85Z"/>
      <path class="cls-4" d="m81.25,1519.07c-10.4-2.42-18.13-1.59-19.75,1.96-1.2,2.63,1.22,6.14,1.92,7.15,4.17,6.04,12.01,7.35,23.82,9.16,3.49.53,8.67,1.18,15.05,1.42-.01-6.39-.64-11.68-1.28-15.49-1.56-9.41-2.8-16.33-8.26-21.72-.73-.72-6.87-6.67-10.53-4.94-5.61,2.65-1.24,21.38-.97,22.48Z"/>
      <path class="cls-13" d="m443.49,1145.54c-.91-12.39-4.5-20.69-9-21.26-3.33-.42-6.39,3.48-7.27,4.6-5.27,6.71-4.01,15.88-1.94,29.62.61,4.06,1.68,10.03,3.63,17.21,7.09-2.22,12.74-4.75,16.77-6.77,9.91-4.98,17.18-8.75,21.27-16.68.55-1.06,5.03-9.94,1.85-13.4-4.88-5.31-24.17,6.02-25.3,6.69Z"/>
      <path class="cls-13" d="m443.17,1201.68c6.91-1.28,11.97-.5,12.93,1.89.71,1.76-.99,4-1.47,4.64-2.92,3.85-8.12,4.47-15.94,5.3-2.31.25-5.74.52-9.94.48.2-4.2.78-7.66,1.31-10.15,1.31-6.14,2.33-10.66,6.09-14.04.5-.45,4.72-4.18,7.07-2.93,3.61,1.91.17,14.1-.04,14.81Z"/>
      <path class="cls-4" d="m456.47,1100.99c4.41-5.48,8.75-8.19,11.03-7,1.69.88,1.86,3.68,1.91,4.48.29,4.82-3.24,8.69-8.63,14.42-1.59,1.69-4.01,4.13-7.23,6.84-2.59-3.32-4.41-6.31-5.63-8.55-3.01-5.51-5.18-9.6-4.54-14.61.09-.67.86-6.25,3.45-6.83,3.98-.9,9.32,10.58,9.63,11.26Z"/>
    </g>
    <g>
      <path class="cls-13" d="m1687,1380.71c-3.27-.52-35.37-5.01-56.93,19.41-16.13,18.27-18.13,43.39-10.85,62.82,10.17,27.16,39.57,46.14,70.6,41.16,29.34-4.71,53.38-29.75,54.09-59.95.81-34.25-28.74-58.99-56.91-63.44Z"/>
      <path class="cls-10" d="m1940.54,1266.64c28.81-25.92,50.35-45.29,74.43-43.48,38.74,2.91,71.13,59.69,76.12,107.39,9.51,90.94-75.92,193.52-135.01,182.15-54.9-10.57-96.01-121.23-64.89-187.88,11.11-23.79,31.48-42.11,49.34-58.18Z"/>
      <path class="cls-19" d="m1895.78,1019.65c7.65,6.31,5.52,49.8,1.28,65.77-7.64,28.76-23.83,47.96-33.28,57.59-4.58-1.01-49.92-11.43-54.3-35.59-6.15-33.95,69.37-101.75,86.3-87.78Z"/>
      <path class="cls-19" d="m1800.55,1015.14c23.32,4.13,35.45-7.38,49.34-60.58,6.71-25.68,15.5-62.47-13.35-68.12-42.31-8.28-57.57,48.08-62.56,88.92-.65,5.31-6.53,33.92,26.57,39.78Z"/>
      <path class="cls-19" d="m1884.59,1197.63c35.5-6,50.19,1.42,54.06,3.55,19.53,10.75,20.1,33.34,33.88,58.99,47.08,87.66,34.64,154.93,34.64,154.93,0,0-42.75,49.66-56.25,56.55-8.27,4.23-80.18,39.56-141.8,2.68-39.01-23.34-50.75-61.78-56.62-80.99-6-19.65-24.39-79.83,13.52-133.47,33.86-47.92,89.05-57.25,118.58-62.24Z"/>
      <path class="cls-19" d="m1662.93,1369.83c19.16,16.28,108.01,155.27,154.6,146.45,19.6-3.71,52.43-27.95,65.62-48.36,16.12-24.95-7.86-63.04-15.25-74.78-23.36-37.1-59.69-52.78-82.63-62.68-28.61-12.35-54.11-16.87-70.9-18.73-18.06-26.38-61.13,49.86-51.44,58.1Z"/>
      <path class="cls-19" d="m1973.54,1424.83c5.6,22.97,11.59,46.34,18,70.1,5.28,19.57,10.67,38.77,16.16,57.6-1.25,8.59-4.24,22.14-12.51,36.31-31.67,54.28-104.52,55.66-109.21,55.68-12,.05-32.51-1.49-56.66-12.06-1.62-25.44-4.62-53.2-9.67-82.81-7.35-43.17-17.56-81.53-28.39-114.51,27.63-5.33,59.64-9.73,95.3-11.51,32.01-1.6,61.22-.79,86.97,1.21Z"/>
      <path class="cls-19" d="m1939.64,1080.9c7.65,6.31,5.52,49.8,1.28,65.77-7.64,28.76-23.83,47.96-33.28,57.59-4.58-1.01-49.93-11.43-54.3-35.59-6.15-33.95,69.37-101.75,86.3-87.78Z"/>
      <path class="cls-11" d="m1845.7,1434.97l169.69-118.64c15.12-10.57,18.81-31.4,8.24-46.53l-264.24-377.95c-10.57-15.12-31.4-18.81-46.53-8.24l-169.69,118.64c-15.12,10.57-18.81,31.4-8.24,46.53l264.24,377.95c10.57,15.12,31.4,18.81,46.53,8.24Z"/>
      <g>
        <path id="SVGID-3" data-name="SVGID" class="cls-4" d="m2009.52,1269.34l-254.53-364.06c-4.32-6.18-12.83-7.68-19-3.36l-183.57,128.34c-6.18,4.32-7.68,12.83-3.36,19.01l254.53,364.06c4.32,6.18,12.83,7.68,19,3.36l183.57-128.34c6.18-4.32,7.68-12.83,3.36-19.01Z"/>
        <g class="cls-27">
          <g>
            <polygon class="cls-13" points="1857.66 1028.1 1758.48 1196.7 1885.93 1450.79 2121.31 1312.83 1857.66 1028.1"/>
            <polygon class="cls-10" points="1779.99 1192.34 1899.24 984.83 2084.56 1184.91 1779.99 1192.34"/>
            <polygon class="cls-12" points="1878.97 1189.92 1874.69 1203.97 1976.95 1403.03 2036.51 1371.45 1946.79 1199 1951.12 1182.44 1878.97 1189.92"/>
            <path class="cls-12" d="m1831.05,1255.46c-6.85-2.7-15.99-1.14-20.59,5.18-5.94,8.15-2.33,21.44,7.16,26.29,8.32,4.25,19.94,1.4,24.17-7.21,4.56-9.28-1.73-20.7-10.74-24.25Z"/>
            <path class="cls-12" d="m1883.8,1302.96c-9.36,1.56-17.21,9.21-20.18,17.9-5.24,15.29,4.03,35.48,21.69,39.33,15.34,3.34,30.94-6.95,34.34-19.69,5.02-18.78-17.07-40.66-35.85-37.54Z"/>
            <path class="cls-12" d="m1859.28,1214.81c-5.32,2.09-7.6,8.82-5.97,13.98,2.06,6.53,10.38,10.53,16.07,7.43,4.47-2.44,6.04-8.58,4.54-13.31-1.86-5.84-8.7-10.43-14.64-8.1Z"/>
            <path class="cls-12" d="m2014.86,1249.73c-6.85-2.7-15.99-1.14-20.59,5.18-5.94,8.15-2.33,21.44,7.16,26.29,8.32,4.25,19.95,1.4,24.17-7.21,4.56-9.28-1.73-20.7-10.74-24.25Z"/>
          </g>
        </g>
      </g>
      <path class="cls-19" d="m1969.94,1118.87c-21.24-3.76-32.29,6.72-44.94,55.19-6.11,23.4-14.12,56.9,12.17,62.05,38.54,7.54,52.44-43.8,56.98-81,.59-4.84,5.95-30.9-24.21-36.23Z"/>
      <path class="cls-10" d="m1622.12,1136.13c38.93-5.7,60.66,23.04,90.16,17.11,59.73-12.01,58.22-83.61,5.9-100.65-35.89-11.69-49.73,5.71-94.4,11.56-52.17,6.82-93.49-22.81-149.03,12.54-39.17,24.94-54.44,116,8.83,128.27,84.78,16.45,92.81-62.14,138.55-68.84Z"/>
      <path class="cls-19" d="m1941.28,1112.56c4.63-21.69,3.03-36.03-12.34-46.72-13.82-9.61-37.28-13.04-47.02-1.17-9.97,12.15-1.3,35.16,11.54,46.99,13.31,12.26,28.43,8.61,47.82.9Z"/>
      <path class="cls-19" d="m1710.36,1336.69c5.59-26.06-2.08-57.55-22.85-79.76-32.06-34.28-85.21-35.9-90.38-26.57-3.45,6.23,8.56,14.93,25.48,45.01,7.27,12.92,7.43,16.13,21.47,47.82,15.47,34.91,12.88,44.22,22.87,49.83,2,1.12,9.1,4.76,17.07,3.02,18.77-4.09,25.24-34.27,26.34-39.35Z"/>
      <path class="cls-19" d="m1898.93,1051.98c4.63-21.69,3.03-36.03-12.34-46.72-13.82-9.61-37.28-13.04-47.02-1.17-9.97,12.15-1.3,35.16,11.54,46.99,13.31,12.26,28.43,8.61,47.82.9Z"/>
      <path class="cls-11" d="m1913.89,1122.7c-.06,0-.12,0-.19,0-.78-.03-1.39-.68-1.36-1.46.02-.77.67-1.38,1.44-1.36.05,0,.11,0,.17,0,5.3.12,11.55-2.76,16.37-7.54,3.97-3.95,6.19-8.43,6.08-12.29-.02-.78.59-1.43,1.37-1.45.85.06,1.43.59,1.45,1.37.13,4.64-2.39,9.87-6.92,14.37-5.34,5.31-12.38,8.5-18.43,8.36Z"/>
      <path class="cls-11" d="m1696.09,1366.98c-.34,0-.67-.13-.94-.38-.57-.53-.6-1.43-.06-1.99,5.16-5.48,14.09-17.51,16.03-36.48,1.73-17.01-1.68-32.09-3.96-38.31-.27-.73.11-1.55.84-1.81.73-.26,1.54.11,1.81.84,2.37,6.45,5.91,22.05,4.12,39.57-2.02,19.81-11.38,32.39-16.78,38.13-.28.3-.67.45-1.06.44Z"/>
      <path class="cls-11" d="m1721.19,1351.15c-.1,0-.2-.02-.31-.04-.76-.19-1.22-.95-1.03-1.71,1.42-5.76,1.8-11.66,1.13-17.55-.86-7.63-5.39-15.24-9.22-19.09-.55-.55-.55-1.45,0-2,.55-.55,1.45-.55,2,0,4.17,4.18,9.09,12.46,10.03,20.77.7,6.22.3,12.46-1.2,18.54-.16.66-.76,1.09-1.4,1.07Z"/>
      <g>
        <path class="cls-19" d="m1846.86,1446.33c-3.95-5.85-11.27-15-23.28-22.28-19.75-11.97-39.41-11.15-46.7-10.47,1.31,5.99,4.27,14.62,11.38,22.07,13.51,14.15,36.35,18.07,58.6,10.68Z"/>
        <path class="cls-11" d="m1846.83,1447.74c-.44-.01-.87-.23-1.14-.62-6.06-8.99-13.75-16.35-22.84-21.86-18.08-10.95-36.48-11.14-45.84-10.28-.76.06-1.47-.5-1.54-1.28-.07-.78.5-1.46,1.28-1.54,9.72-.9,28.8-.7,47.56,10.68,9.45,5.72,17.43,13.36,23.72,22.69.44.65.27,1.53-.38,1.96-.25.17-.54.25-.82.24Z"/>
      </g>
      <path class="cls-11" d="m1929.43,1482.35c-.48-.01-.93-.26-1.19-.7-.39-.67-.16-1.54.51-1.93,11.72-6.83,34.47-23.17,48.67-34.96.6-.5,1.49-.42,1.99.19.5.6.42,1.49-.19,1.99-14.3,11.87-37.22,28.33-49.05,35.23-.23.14-.49.2-.74.19Z"/>
      <path class="cls-11" d="m1807.94,1517.62c-.73-.02-1.33-.59-1.38-1.33-.04-.78.55-1.44,1.33-1.49,8.72-.49,17.49-1.55,26.08-3.15,8.65-1.62,17.27-3.81,25.65-6.54.75-.23,1.54.17,1.78.91.24.74-.17,1.54-.91,1.78-8.49,2.76-17.24,4.98-26.01,6.62-8.71,1.62-17.6,2.7-26.44,3.2-.04,0-.08,0-.11,0Z"/>
      <path class="cls-12" d="m1808.85,1067.1c-1.24-.03-2.46-.63-3.21-1.74-4.74-6.93-8.54-14.46-11.28-22.38-3.46-9.99-5.21-20.45-5.19-31.08,0-2.21,1.8-4,4.01-3.99.03,0,.06,0,.08,0,2.17.05,3.91,1.83,3.91,4.01-.02,9.73,1.58,19.31,4.74,28.45,2.51,7.24,5.98,14.13,10.33,20.48,1.25,1.82.78,4.31-1.04,5.56-.72.49-1.54.71-2.35.7Z"/>
      <path class="cls-10" d="m1599.67,1230.44c10.2,1.02,23.89,6.98,35.29,20.43,3.08,3.63,12.12,17.52,15.31,26.19-1.98,2.54-19.34,10.67-22.36,11.9-16.48-33.84-45.8-60.27-28.25-58.52Z"/>
      <path class="cls-10" d="m1964.87,1190.47c-2.49-2.24-6.11-4.94-10.96-6.98-10.78-4.54-20.7-2.91-24.85-1.96-5.03,12.53-6.61,23.04-7.12,30.11-.53,7.35.11,10.72,2.18,13.39,4.39,5.66,13.59,6.06,18.82,4.8,11.94-2.88,20.85-18.67,21.92-39.36Z"/>
      <path class="cls-10" d="m1884.47,1064.74c-1.7,4.19,7.39,11.53,11.28,14.66,9.49,7.66,19.37,11.48,26.86,13.5,2.47-2.58,4.94-5.16,7.4-7.74-1.23-3.13-4.05-9.1-10.11-14.46-5.74-5.07-11.65-7.17-14.86-8.06-10.63-1.91-19.17-1.39-20.58,2.09Z"/>
      <path class="cls-11" d="m1874.97,1061.89c-.64-.02-1.21-.46-1.35-1.11-.17-.76.32-1.52,1.08-1.68,2.32-.5,4.47-1.43,6.39-2.77,4.13-2.88,5.99-6.88,6.73-9,.26-.73,1.06-1.12,1.8-.87.74.26,1.13,1.06.87,1.8-.85,2.45-3,7.06-7.78,10.39-2.23,1.55-4.72,2.63-7.4,3.21-.11.03-.23.03-.33.03Z"/>
      <path class="cls-10" d="m1842.27,1004.39c-1.7,4.19,7.39,11.53,11.28,14.66,9.49,7.66,19.37,11.48,26.86,13.5,2.47-2.58,4.93-5.16,7.4-7.74-1.23-3.13-4.05-9.1-10.11-14.46-5.74-5.07-11.65-7.17-14.86-8.06-10.63-1.91-19.16-1.39-20.58,2.09Z"/>
      <path class="cls-11" d="m1955.75,1481.54c-.33,0-.66-.13-.93-.38-.57-.53-.6-1.42-.07-2,5.85-6.31,11.04-13.22,15.42-20.57,2.55-4.28,4.86-8.76,6.87-13.32.32-.71,1.15-1.04,1.86-.72.71.31,1.04,1.15.72,1.86-2.05,4.66-4.42,9.24-7.03,13.62-4.48,7.52-9.79,14.59-15.77,21.05-.29.31-.68.46-1.07.45Z"/>
      <path class="cls-11" d="m1969.38,1170.34c-.33,0-.66-.13-.92-.37-4.1-3.74-10.96-8.42-20.38-9.42-3.75-.4-7.56-.17-11.33.7-.77.16-1.52-.3-1.69-1.06s.3-1.52,1.06-1.69c4.07-.93,8.19-1.19,12.25-.76,10.19,1.08,17.58,6.12,21.99,10.15.58.53.62,1.42.09,2-.29.31-.68.47-1.08.46Z"/>
      <path class="cls-11" d="m1972.96,1163.73c-.33,0-.66-.13-.92-.37-4.1-3.75-10.97-8.42-20.38-9.42-.78-.08-1.34-.78-1.26-1.55.08-.78.85-1.31,1.55-1.26,10.18,1.08,17.58,6.11,21.99,10.15.57.53.61,1.42.09,2-.28.31-.68.47-1.07.46Z"/>
      <polygon class="cls-13" points="1666.12 1070.47 1853.09 1012.62 1916.88 866.58 1880.66 828.99 1719.25 899.95 1631.28 1022.36 1666.12 1070.47"/>
      <polygon class="cls-12" points="1729.34 1049.41 1692.77 1002.74 1770.65 877.35 1804.39 862.52 1739.3 987.89 1771.94 1037.73 1729.34 1049.41"/>
      <polygon class="cls-12" points="1686.6 945.39 1852.96 886.17 1890.03 928.05 1875.16 962.1 1834.89 923.47 1666.25 973.7 1686.6 945.39"/>
      <path class="cls-11" d="m1631.25,1023.77c-.59-.01-1.12-.39-1.31-.98-.24-.74.17-1.54.92-1.77l183.6-58.59,64.94-134.06c.34-.7,1.19-1,1.89-.65.7.34,1,1.18.65,1.89l-65.2,134.6c-.17.35-.47.61-.84.73l-184.18,58.77c-.15.05-.31.07-.46.07Z"/>
      <path class="cls-11" d="m1853.06,1014.03c-.41-.01-.82-.2-1.09-.55l-37.63-49.03c-.48-.62-.36-1.51.26-1.98.61-.47,1.5-.36,1.98.26l37.63,49.03c.48.62.36,1.51-.26,1.98-.27.2-.58.3-.89.29Z"/>
      <path class="cls-10" d="m1489.37,992.33c-12.92-2.51-27.02,4.73-32.79,13.52-9.82,14.94,2.36,37.53,20.27,39.98,12.77,1.75,26.49-7.02,31.45-16.84,6.99-13.85-1.69-33.31-18.93-36.66Z"/>
      <path class="cls-10" d="m1521.87,960.15c-6.07-1.18-12.69,2.22-15.41,6.35-4.61,7.02,1.11,17.63,9.52,18.79,6,.82,12.45-3.3,14.78-7.91,3.28-6.51-.79-15.65-8.89-17.22Z"/>
      <path class="cls-10" d="m2059.47,1149.98c-12.92-2.51-27.01,4.73-32.79,13.52-9.82,14.94,2.36,37.53,20.26,39.98,12.77,1.75,26.5-7.02,31.45-16.84,6.99-13.85-1.69-33.31-18.93-36.66Z"/>
      <path class="cls-4" d="m2031.28,1079.42l-48.35-1.11c-18.3-.42-32.8-15.6-32.38-33.9l.99-43.29c.42-18.31,15.6-32.8,33.9-32.38l48.35,1.11c18.3.42,32.8,15.6,32.39,33.9l-.99,43.29c-.42,18.31-15.6,32.8-33.9,32.38Z"/>
      <path class="cls-4" d="m1976.05,1033.93c-8.9,4.63-18.52-4.82-35.21-2.49-11.5,1.61-20.12,7.94-25.49,12.85.65-4.97,3.44-21.4,17.57-34.02,21.91-19.56,50.95-11.99,53.16-11.38.8,24.38-4.78,32.31-10.04,35.04Z"/>
      <path class="cls-12" d="m2007.15,1012.97c-7.03-14.49-15.34-22.78-21.04-21.31-4.22,1.09-6.04,7.26-6.56,9.03-3.13,10.62,2.78,21.06,11.87,36.63,2.69,4.6,6.84,11.29,12.63,19,7.49-6.08,13.08-11.84,16.96-16.2,9.56-10.76,16.51-18.79,17.64-30.31.15-1.54,1.3-14.39-4.2-17.04-8.42-4.06-26.25,18.84-27.29,20.2Z"/>
      <path class="cls-12" d="m1762.01,1128.64c-.69-.02-1.39-.21-2.03-.61-15.36-9.6-31.92-16.8-49.24-21.39-28.41-7.54-58.98-7.92-88.42-1.1-2.16.5-4.3-.84-4.8-2.99-.5-2.15.84-4.3,2.99-4.8,30.69-7.11,62.6-6.71,92.28,1.16,18.09,4.8,35.39,12.32,51.43,22.34,1.87,1.17,2.44,3.64,1.27,5.52-.78,1.24-2.12,1.91-3.49,1.88Z"/>
      <path class="cls-12" d="m1757.25,1150.6c-.94-.02-1.87-.37-2.61-1.05-5.91-5.43-12.58-9.67-19.83-12.61-19.39-7.88-37.75-4.27-46.96-1.42-2.1.66-4.35-.53-5-2.64-.66-2.11.53-4.35,2.64-5,10.23-3.17,30.64-7.16,52.34,1.65,8.14,3.3,15.61,8.06,22.23,14.14,1.63,1.49,1.74,4.03.24,5.65-.81.88-1.93,1.32-3.04,1.29Z"/>
      <path class="cls-12" d="m1703.94,1197.9c-.98-.02-1.95-.4-2.7-1.14-1.58-1.55-1.61-4.08-.07-5.66,6.64-6.8,25.11-22.81,53.05-24.52,22.04-1.36,39.07,6.92,47.27,11.97,1.88,1.16,2.47,3.63,1.31,5.51-1.16,1.88-3.62,2.46-5.51,1.31-7.39-4.56-22.75-12-42.58-10.8-25.16,1.54-41.82,15.98-47.81,22.12-.81.82-1.88,1.23-2.95,1.2Z"/>
      <path class="cls-13" d="m1755.7,1494.17c-1.12-.18-12.11-1.71-19.49,6.64-5.52,6.25-6.21,14.85-3.71,21.51,3.48,9.3,13.55,15.79,24.17,14.09,10.05-1.61,18.27-10.19,18.52-20.52.28-11.73-9.84-20.2-19.48-21.72Z"/>
      <path class="cls-13" d="m1714.35,1523.79c-.64-.1-6.85-.97-11.03,3.76-3.13,3.54-3.51,8.41-2.1,12.17,1.97,5.26,7.67,8.94,13.68,7.98,5.69-.91,10.34-5.77,10.48-11.62.16-6.64-5.57-11.43-11.03-12.29Z"/>
      <path class="cls-13" d="m1961.74,1652.71c-1.51-.04-2.93-.92-3.57-2.39-.89-2.03.03-4.38,2.05-5.27,12.1-5.31,34.72-18.13,50.28-44.31,12.88-21.67,15.43-42.95,15.3-56.98-.02-2.21,1.76-4.02,3.97-4.04,2.09.05,4.02,1.76,4.04,3.96.14,15.06-2.6,37.9-16.43,61.15-16.71,28.1-40.97,41.85-53.94,47.54-.56.24-1.14.35-1.7.34Z"/>
      <path class="cls-13" d="m2041.53,1589.35c-.46-.01-.93-.1-1.38-.28-2.06-.81-3.06-3.14-2.24-5.19,7.73-19.48,10.44-40.4,7.85-60.49-1.45-11.28-4.55-22.33-9.21-32.86-.89-2.02.02-4.39,2.04-5.28,2.01-.89,4.39.02,5.28,2.04,4.97,11.24,8.27,23.04,9.82,35.07,2.76,21.43-.12,43.72-8.35,64.46-.64,1.6-2.19,2.56-3.81,2.53Z"/>
    </g>
  </g>
</svg>